<svg id="svg" version="1.1" xmlns="http://www.w3.org/2000/svg" xmlns:xlink="http://www.w3.org/1999/xlink" width="400" height="360.9834744054817" viewBox="0, 0, 400,360.9834744054817"><g id="svgg"><path id="path0" d="M184.000 14.506 C 182.946 14.574,181.207 14.675,180.137 14.729 C 172.948 15.098,161.776 16.879,153.282 19.012 C 152.199 19.283,151.009 19.544,150.637 19.591 C 149.490 19.735,143.787 21.408,139.583 22.833 C 137.383 23.579,135.246 24.290,134.833 24.412 C 133.072 24.932,125.030 28.205,123.502 29.022 C 123.183 29.193,122.802 29.333,122.656 29.333 C 122.262 29.333,109.583 35.748,109.000 36.242 C 108.862 36.359,107.212 37.376,105.333 38.503 C 102.203 40.379,100.692 41.357,98.167 43.139 C 97.662 43.495,96.701 44.139,96.029 44.572 C 95.357 45.004,94.532 45.603,94.196 45.904 C 93.859 46.205,92.796 47.029,91.833 47.736 C 90.871 48.443,89.933 49.146,89.750 49.298 C 81.726 55.928,76.072 61.467,69.978 68.667 C 68.729 70.142,64.909 75.129,64.500 75.816 C 64.271 76.202,63.744 76.982,63.329 77.550 C 62.120 79.206,60.267 82.065,59.452 83.532 C 59.213 83.962,58.272 85.612,57.360 87.198 C 55.830 89.862,55.119 91.238,54.153 93.417 C 53.949 93.875,53.338 95.225,52.794 96.417 C 51.622 98.985,49.778 103.608,49.503 104.667 C 49.396 105.079,48.905 106.692,48.413 108.250 C 47.162 112.210,46.904 113.117,46.331 115.583 C 45.450 119.376,44.750 123.253,44.571 125.333 C 44.520 125.929,44.370 127.485,44.239 128.791 C 43.593 135.193,43.540 142.011,44.089 148.000 C 44.227 149.512,44.411 151.575,44.497 152.583 C 45.002 158.517,47.339 168.023,50.293 176.167 C 51.239 178.775,52.469 181.623,55.100 187.293 C 55.409 187.958,56.408 189.803,57.320 191.394 C 58.232 192.984,59.123 194.540,59.299 194.851 C 60.375 196.749,61.441 198.401,63.179 200.866 C 63.676 201.571,64.286 202.471,64.535 202.866 C 65.070 203.716,68.868 208.612,70.725 210.844 C 76.020 217.208,83.811 224.688,90.668 229.989 C 91.905 230.945,93.249 231.995,93.655 232.322 C 94.821 233.260,102.139 238.282,103.424 239.026 C 103.795 239.241,105.583 240.305,107.398 241.391 C 109.212 242.477,111.103 243.544,111.598 243.764 C 112.094 243.983,112.783 244.341,113.129 244.560 C 113.997 245.108,121.084 248.667,121.307 248.667 C 121.407 248.667,122.334 249.069,123.369 249.561 C 126.346 250.977,131.723 253.209,132.833 253.490 C 133.154 253.572,134.579 254.063,136.000 254.581 C 139.007 255.679,145.726 257.824,147.417 258.225 C 148.058 258.377,149.933 258.834,151.583 259.240 C 160.231 261.367,169.406 263.006,174.500 263.335 C 175.737 263.415,177.875 263.597,179.250 263.739 C 188.540 264.701,199.370 264.728,210.000 263.818 C 212.154 263.634,214.929 263.417,216.167 263.336 C 222.030 262.952,233.330 260.772,244.000 257.966 C 246.174 257.394,254.152 254.763,256.017 254.004 C 256.695 253.727,257.367 253.501,257.509 253.501 C 257.942 253.500,262.479 251.640,267.667 249.337 C 269.343 248.592,275.237 245.682,278.583 243.946 C 280.740 242.827,284.759 240.463,286.042 239.558 C 286.478 239.251,286.903 239.000,286.986 239.000 C 287.153 239.000,291.199 236.364,291.333 236.167 C 291.379 236.100,292.354 235.416,293.500 234.646 C 294.646 233.876,296.066 232.872,296.657 232.415 C 297.247 231.957,298.784 230.766,300.073 229.766 C 308.172 223.488,316.328 215.360,322.418 207.500 C 323.235 206.446,324.344 205.027,324.883 204.347 C 325.422 203.666,325.927 202.954,326.005 202.763 C 326.083 202.573,326.531 201.892,327.000 201.250 C 328.094 199.752,330.537 196.066,330.866 195.417 C 331.005 195.142,331.852 193.642,332.749 192.083 C 334.482 189.071,335.833 186.478,335.833 186.166 C 335.833 186.061,336.017 185.663,336.241 185.280 C 339.332 179.999,343.976 165.650,345.314 157.250 C 347.168 145.606,347.218 136.015,345.495 122.500 C 344.895 117.789,342.586 109.139,340.047 102.083 C 337.782 95.793,332.472 85.363,328.762 79.917 C 328.075 78.908,326.958 77.255,326.280 76.242 C 325.263 74.726,323.859 72.890,320.546 68.750 C 315.408 62.329,305.956 53.259,298.667 47.756 C 297.704 47.029,296.542 46.127,296.083 45.751 C 295.625 45.374,294.781 44.770,294.208 44.408 C 293.635 44.046,292.548 43.305,291.791 42.761 C 290.406 41.764,286.893 39.441,286.583 39.317 C 286.491 39.280,284.809 38.286,282.845 37.108 C 280.881 35.929,278.631 34.649,277.845 34.262 C 277.060 33.876,274.546 32.609,272.260 31.447 C 269.973 30.284,267.992 29.333,267.857 29.333 C 267.722 29.333,267.043 29.063,266.348 28.733 C 265.652 28.402,264.446 27.869,263.667 27.548 C 262.887 27.227,261.875 26.796,261.417 26.589 C 257.410 24.785,242.453 19.955,239.697 19.575 C 239.392 19.533,238.267 19.278,237.197 19.008 C 231.840 17.657,224.381 16.269,218.417 15.515 C 213.913 14.945,212.757 14.831,210.548 14.739 C 209.376 14.690,207.404 14.579,206.167 14.492 C 203.575 14.311,186.856 14.321,184.000 14.506 M202.750 24.169 C 234.432 25.637,263.708 35.548,287.333 52.804 C 349.219 98.004,351.357 177.570,291.959 224.959 C 284.036 231.280,273.182 238.091,265.000 241.875 C 242.031 252.499,220.570 257.228,195.250 257.243 C 187.063 257.248,185.354 257.177,179.000 256.574 C 158.401 254.620,137.636 248.466,120.188 239.144 C 74.752 214.871,50.241 172.080,56.189 127.417 C 59.012 106.215,68.942 85.986,84.939 68.851 C 86.616 67.054,88.123 65.476,88.286 65.345 C 88.450 65.214,89.371 64.348,90.333 63.422 C 117.760 37.024,160.218 22.199,202.750 24.169 M244.673 87.989 C 244.485 88.339,244.415 217.583,244.601 218.070 C 244.735 218.417,281.787 218.480,282.133 218.133 C 282.425 217.842,282.425 88.158,282.133 87.867 C 281.736 87.469,244.886 87.590,244.673 87.989 M196.833 125.455 C 196.696 125.507,196.528 125.632,196.461 125.733 C 196.235 126.071,196.307 217.907,196.533 218.133 C 196.880 218.480,233.932 218.417,234.066 218.070 C 234.331 217.377,234.172 125.863,233.905 125.595 C 233.641 125.332,197.516 125.195,196.833 125.455 M148.583 134.288 C 148.400 134.334,148.195 134.457,148.128 134.561 C 147.902 134.909,147.974 217.907,148.200 218.133 C 148.547 218.480,185.599 218.417,185.732 218.070 C 185.905 217.618,185.844 134.775,185.670 134.500 C 185.514 134.253,149.533 134.047,148.583 134.288 M99.411 162.708 C 99.367 162.823,99.350 175.367,99.374 190.583 L 99.417 218.250 118.167 218.250 L 136.917 218.250 136.917 190.417 L 136.917 162.583 118.203 162.541 C 103.321 162.507,99.474 162.541,99.411 162.708 M35.319 302.231 C 35.281 302.267,34.800 302.338,34.250 302.389 C 31.571 302.637,27.481 304.645,25.028 306.918 C 16.188 315.104,20.241 328.481,32.583 331.856 C 35.252 332.586,40.754 332.673,43.083 332.022 C 43.817 331.817,44.707 331.587,45.062 331.510 C 47.634 330.955,52.925 326.903,54.024 324.646 C 55.170 322.294,55.184 322.100,54.222 321.927 C 53.871 321.864,52.356 321.438,50.855 320.981 C 49.355 320.524,48.114 320.173,48.099 320.200 C 48.083 320.228,47.923 320.544,47.743 320.903 C 45.661 325.064,38.934 327.400,34.417 325.532 C 30.189 323.783,28.083 321.061,28.083 317.342 L 28.083 315.417 28.830 313.917 C 32.204 307.136,43.202 306.628,47.359 313.060 C 47.716 313.612,48.036 314.092,48.071 314.127 C 48.153 314.209,54.540 312.175,54.714 312.012 C 54.911 311.826,53.920 309.748,53.212 308.864 C 50.531 305.515,45.785 302.785,41.863 302.335 C 40.477 302.176,35.464 302.097,35.319 302.231 M71.578 302.338 C 67.056 302.902,61.001 306.983,59.342 310.583 C 59.131 311.042,58.780 311.805,58.563 312.281 C 56.933 315.840,57.449 321.091,59.806 324.917 C 64.801 333.028,79.039 335.105,87.245 328.919 C 97.361 321.294,94.286 306.914,81.680 302.898 C 79.697 302.266,74.470 301.976,71.578 302.338 M107.500 302.210 C 107.454 302.256,107.042 302.332,106.583 302.380 C 102.935 302.761,98.693 305.807,96.927 309.313 C 95.824 311.503,95.833 311.390,95.833 322.482 L 95.833 332.500 99.583 332.500 L 103.333 332.500 103.333 323.179 C 103.333 313.098,103.369 312.617,104.209 311.370 C 106.953 307.296,113.581 307.644,116.139 311.994 L 116.583 312.750 116.630 322.625 L 116.677 332.500 120.422 332.500 L 124.167 332.500 124.167 322.708 C 124.167 311.804,124.096 311.031,122.893 308.818 C 121.535 306.321,118.086 303.664,114.917 302.675 C 113.808 302.329,107.762 301.950,107.500 302.210 M126.833 305.250 L 126.833 308.333 132.500 308.333 L 138.167 308.333 138.167 320.417 L 138.167 332.500 141.917 332.500 L 145.667 332.500 145.667 320.417 L 145.667 308.333 151.333 308.333 L 157.000 308.333 157.000 305.250 L 157.000 302.167 141.917 302.167 L 126.833 302.167 126.833 305.250 M170.237 302.331 C 165.676 302.972,160.872 307.150,159.764 311.441 C 159.537 312.320,159.500 313.877,159.500 322.482 L 159.500 332.500 163.250 332.500 L 167.000 332.500 167.000 329.500 L 167.000 326.500 173.667 326.500 L 180.333 326.500 180.333 329.500 L 180.333 332.500 184.083 332.500 L 187.833 332.500 187.828 322.792 C 187.825 317.452,187.756 312.571,187.676 311.945 C 187.139 307.781,182.723 303.644,177.481 302.395 C 176.793 302.231,171.297 302.183,170.237 302.331 M190.500 305.076 L 190.500 308.000 198.542 308.001 C 207.487 308.002,207.421 307.995,208.650 309.100 C 210.140 310.439,210.174 311.837,208.748 313.150 C 207.520 314.283,207.901 314.239,198.792 314.299 L 190.500 314.353 190.500 317.427 L 190.500 320.500 198.311 320.500 C 206.459 320.500,207.478 320.571,208.370 321.204 C 210.173 322.483,210.284 324.097,208.669 325.549 C 207.433 326.661,207.381 326.667,198.426 326.667 L 190.500 326.667 190.500 329.583 L 190.500 332.500 199.473 332.500 C 209.423 332.500,209.705 332.474,212.049 331.345 C 217.371 328.783,218.960 322.272,215.284 318.094 L 214.566 317.278 215.259 316.565 C 219.644 312.053,216.670 304.300,209.816 302.378 C 209.596 302.317,205.160 302.240,199.958 302.209 L 190.500 302.151 190.500 305.076 M219.667 305.250 L 219.667 308.333 221.583 308.333 L 223.500 308.333 223.500 317.333 L 223.500 326.333 221.583 326.333 L 219.667 326.333 219.667 329.417 L 219.667 332.500 227.250 332.500 L 234.833 332.500 234.833 329.417 L 234.833 326.333 232.917 326.333 L 231.000 326.333 231.000 317.333 L 231.000 308.333 232.917 308.333 L 234.833 308.333 234.833 305.250 L 234.833 302.167 227.250 302.167 L 219.667 302.167 219.667 305.250 M237.333 317.333 L 237.333 332.500 249.000 332.500 L 260.667 332.500 260.667 329.417 L 260.667 326.333 252.750 326.333 L 244.833 326.333 244.833 314.250 L 244.833 302.167 241.083 302.167 L 237.333 302.167 237.333 317.333 M263.167 305.250 L 263.167 308.333 265.083 308.333 L 267.000 308.333 267.000 317.333 L 267.000 326.333 265.083 326.333 L 263.167 326.333 263.167 329.417 L 263.167 332.500 270.750 332.500 L 278.333 332.500 278.333 329.417 L 278.333 326.333 276.417 326.333 L 274.500 326.333 274.500 317.333 L 274.500 308.333 276.417 308.333 L 278.333 308.333 278.333 305.250 L 278.333 302.167 270.750 302.167 L 263.167 302.167 263.167 305.250 M281.000 305.220 L 281.000 308.296 286.875 308.375 C 293.583 308.466,294.389 308.589,296.614 309.862 C 303.197 313.628,303.212 321.042,296.645 324.789 C 294.383 326.080,293.596 326.201,286.875 326.291 L 281.000 326.371 281.000 329.447 L 281.000 332.523 287.958 332.459 C 293.628 332.407,295.071 332.348,295.750 332.138 C 296.208 331.996,297.171 331.718,297.890 331.519 C 308.464 328.591,312.368 316.108,305.297 307.833 C 303.741 306.013,299.687 303.548,296.928 302.746 C 295.401 302.302,295.066 302.282,287.958 302.212 L 281.000 302.144 281.000 305.220 M322.250 302.330 C 318.670 302.835,314.571 305.737,312.744 309.061 C 311.500 311.324,311.500 311.325,311.500 322.530 L 311.500 332.500 315.250 332.500 L 319.000 332.500 319.000 329.500 L 319.000 326.500 325.667 326.500 L 332.333 326.500 332.333 329.500 L 332.333 332.500 336.167 332.500 L 340.000 332.500 339.997 322.792 C 339.995 314.917,339.948 312.863,339.750 311.917 C 338.829 307.515,334.464 303.432,329.583 302.407 C 328.764 302.235,323.329 302.178,322.250 302.330 M342.500 305.215 L 342.500 308.294 348.458 308.377 C 355.009 308.468,355.373 308.515,357.583 309.565 C 365.039 313.105,364.969 321.674,357.455 325.171 C 355.356 326.147,354.932 326.200,348.458 326.290 L 342.500 326.373 342.500 329.436 L 342.500 332.500 348.792 332.499 C 356.188 332.497,357.625 332.324,360.769 331.059 C 364.940 329.380,368.717 325.444,370.103 321.333 C 370.558 319.984,370.556 314.670,370.100 313.333 C 368.671 309.148,365.436 305.745,360.905 303.661 C 357.954 302.304,357.825 302.288,349.708 302.208 L 342.500 302.137 342.500 305.215 M77.867 308.681 C 79.542 309.023,83.970 311.570,83.995 312.205 C 83.998 312.272,84.258 312.731,84.574 313.224 C 87.325 317.525,85.502 322.526,80.250 325.082 C 72.121 329.038,62.277 321.502,65.896 314.093 C 67.863 310.067,73.091 307.704,77.867 308.681 M176.667 309.115 C 179.627 310.540,180.236 311.769,180.303 316.458 L 180.356 320.167 173.666 320.167 L 166.976 320.167 167.030 316.625 C 167.083 313.117,167.088 313.073,167.569 312.032 C 168.982 308.972,173.416 307.550,176.667 309.115 M328.792 309.156 C 331.671 310.490,332.234 311.661,332.303 316.458 L 332.356 320.167 325.666 320.167 L 318.976 320.167 319.030 316.625 C 319.082 313.166,319.094 313.062,319.534 312.166 C 321.140 308.897,325.307 307.542,328.792 309.156 " stroke="none" fill="#338fa8" fill-rule="evenodd"></path><path id="path1" d="M185.083 24.341 C 150.585 26.602,118.948 38.882,95.167 59.242 C 39.760 106.677,42.648 182.693,101.547 227.184 C 154.621 267.275,235.957 267.207,289.120 227.028 C 344.959 184.827,350.659 113.179,301.977 65.417 C 293.391 56.993,285.701 51.180,274.083 44.331 C 256.232 33.808,233.198 26.864,208.500 24.560 C 205.154 24.248,188.831 24.095,185.083 24.341 M264.910 60.823 C 265.001 60.970,262.876 73.996,262.482 75.708 C 262.229 76.808,262.134 76.786,258.295 74.750 C 256.479 73.787,254.891 73.000,254.764 73.000 C 254.505 73.000,251.168 76.536,241.017 87.563 C 237.709 91.157,235.456 93.580,233.172 96.000 C 231.830 97.421,229.904 99.483,228.890 100.583 C 225.883 103.846,224.723 104.797,222.214 106.060 C 218.757 107.800,213.854 108.682,209.711 108.310 C 204.182 107.814,201.639 108.592,196.114 112.469 C 192.377 115.091,187.291 118.625,183.833 121.002 C 182.688 121.790,180.925 123.004,179.917 123.700 C 176.868 125.805,174.013 127.061,171.096 127.580 C 169.765 127.817,167.391 127.893,147.167 128.352 C 141.501 128.481,139.105 128.592,138.741 128.744 C 138.461 128.861,136.436 130.563,134.241 132.527 C 132.046 134.492,128.897 137.295,127.243 138.758 C 122.003 143.390,118.658 146.365,116.758 148.083 C 114.106 150.481,113.077 151.333,112.834 151.333 C 112.395 151.333,108.333 147.936,108.333 147.568 C 108.333 147.345,110.430 145.505,119.331 137.917 C 122.665 135.075,127.796 130.695,130.733 128.184 C 133.671 125.673,136.339 123.503,136.663 123.362 C 137.134 123.156,138.415 123.080,143.167 122.978 C 149.965 122.832,160.302 122.546,166.000 122.346 C 171.224 122.162,172.595 121.720,176.500 118.961 C 181.534 115.404,190.462 108.958,191.958 107.800 C 195.494 105.064,198.868 103.286,202.333 102.333 C 204.007 101.872,209.387 101.598,214.282 101.722 L 217.981 101.816 218.949 101.332 C 219.761 100.926,220.986 99.757,226.579 94.049 C 230.243 90.310,236.698 83.725,240.923 79.417 C 249.318 70.858,250.167 69.966,250.167 69.709 C 250.167 69.614,249.539 69.008,248.772 68.362 C 246.072 66.088,245.867 66.396,251.167 64.763 C 252.771 64.269,256.296 63.149,259.000 62.274 C 263.785 60.727,264.710 60.499,264.910 60.823 M166.450 68.922 C 175.668 70.121,180.756 74.803,181.511 82.781 C 181.663 84.390,181.859 84.942,182.580 85.798 C 183.557 86.960,183.980 89.828,183.694 93.362 C 183.502 95.736,183.107 96.710,181.849 97.917 C 181.330 98.415,180.714 99.259,180.319 100.015 C 177.315 105.758,171.315 108.575,162.083 108.575 C 154.444 108.575,150.228 107.145,146.296 103.221 C 145.496 102.422,144.816 101.802,144.784 101.843 C 144.752 101.884,144.381 102.442,143.961 103.083 C 138.166 111.922,119.253 113.323,111.101 105.517 C 106.662 101.267,105.294 94.266,108.243 90.895 L 108.985 90.047 108.331 88.745 C 104.512 81.144,110.135 73.063,120.750 70.896 C 122.901 70.456,129.899 70.454,132.077 70.891 C 136.480 71.775,140.322 73.654,142.703 76.088 C 143.319 76.718,143.851 77.199,143.885 77.158 C 143.920 77.117,144.269 76.606,144.660 76.022 C 147.079 72.416,151.150 70.071,156.529 69.184 C 160.062 68.601,163.319 68.515,166.450 68.922 M160.128 73.672 C 152.300 74.359,148.046 77.075,146.640 82.283 C 146.162 84.052,146.103 92.462,146.554 94.494 C 147.969 100.870,153.375 103.857,163.073 103.621 C 171.168 103.424,176.085 100.633,177.260 95.568 C 177.580 94.187,177.716 94.000,178.404 94.000 C 179.266 94.000,179.333 93.813,179.333 91.417 C 179.333 89.941,179.269 89.169,179.133 89.033 C 178.883 88.783,163.560 88.748,163.167 88.996 C 162.973 89.119,162.904 89.600,162.859 91.119 L 162.802 93.083 163.318 93.731 C 164.064 94.669,163.914 95.432,162.886 95.920 C 162.020 96.331,161.239 96.073,160.617 95.171 C 160.159 94.507,160.188 83.050,160.649 82.481 C 161.438 81.506,162.833 82.110,162.833 83.428 C 162.833 85.590,162.453 85.489,169.917 85.315 C 177.439 85.139,177.232 85.173,177.302 84.085 C 177.734 77.365,170.187 72.790,160.128 73.672 M122.333 75.735 C 115.315 76.973,111.274 80.156,111.536 84.239 C 111.736 87.358,114.036 89.572,119.892 92.281 C 126.348 95.268,127.336 95.868,127.331 96.800 C 127.318 99.055,123.369 98.058,122.632 95.614 C 122.230 94.280,122.221 94.278,116.790 94.412 C 110.353 94.570,110.545 94.460,111.324 97.542 C 112.643 102.756,117.853 105.412,126.750 105.406 C 134.928 105.400,140.307 102.622,141.577 97.747 C 142.619 93.746,139.959 90.932,132.233 87.862 C 126.967 85.769,125.194 84.448,126.305 83.442 C 127.013 82.802,128.266 83.173,129.285 84.327 C 129.937 85.065,131.295 85.149,137.377 84.829 C 141.989 84.586,141.926 84.606,141.792 83.418 C 141.481 80.652,138.373 77.831,134.270 76.587 C 131.107 75.629,125.290 75.214,122.333 75.735 M282.200 87.800 C 282.532 88.132,282.520 217.824,282.188 218.224 C 281.846 218.637,245.007 218.650,244.595 218.238 C 244.241 217.884,244.188 88.414,244.542 87.968 C 244.656 87.823,244.862 87.664,245.000 87.615 C 245.598 87.398,281.980 87.580,282.200 87.800 M234.058 125.479 C 234.472 125.823,234.485 217.825,234.071 218.239 C 233.834 218.475,231.952 218.497,215.201 218.459 L 196.593 218.417 196.382 218.000 C 196.152 217.545,196.085 126.662,196.314 125.839 C 196.381 125.601,196.601 125.380,196.839 125.313 C 197.702 125.071,233.759 125.231,234.058 125.479 M185.763 134.407 C 186.142 134.925,186.117 217.859,185.738 218.238 C 185.369 218.607,148.492 218.642,148.187 218.274 C 148.049 218.108,148.010 206.985,148.041 176.157 L 148.083 134.265 148.500 134.148 C 149.651 133.824,185.519 134.073,185.763 134.407 M136.905 162.595 C 137.306 162.996,137.306 217.837,136.905 218.238 C 136.452 218.691,99.582 218.632,99.339 218.178 C 99.019 217.580,99.107 162.917,99.429 162.595 C 99.829 162.195,136.505 162.195,136.905 162.595 " stroke="none" fill="#fbfbfb" fill-rule="evenodd"></path><path id="path2" d="M355.576 289.000 C 355.576 292.621,355.598 294.102,355.625 292.292 C 355.652 290.481,355.652 287.519,355.625 285.708 C 355.598 283.898,355.576 285.379,355.576 289.000 M85.167 339.364 C 85.167 339.472,85.014 340.128,84.826 340.822 L 84.486 342.083 83.035 342.085 C 79.904 342.088,77.631 343.825,77.392 346.396 C 77.173 348.751,79.694 349.965,82.292 348.756 C 83.132 348.365,83.167 348.362,83.167 348.674 C 83.167 348.954,83.284 349.000,84.000 349.000 C 84.792 349.000,84.833 348.978,84.833 348.555 C 84.833 348.152,85.727 344.661,86.766 341.007 C 87.311 339.088,87.337 339.167,86.167 339.167 C 85.509 339.167,85.167 339.234,85.167 339.364 M262.354 340.055 C 262.245 340.544,262.085 341.200,261.998 341.513 L 261.840 342.083 260.378 342.087 C 257.268 342.093,254.962 343.852,254.726 346.396 C 254.507 348.751,257.027 349.965,259.625 348.756 C 260.465 348.365,260.500 348.362,260.500 348.674 C 260.500 348.954,260.618 349.000,261.333 349.000 C 262.125 349.000,262.167 348.978,262.167 348.555 C 262.167 348.152,263.060 344.661,264.099 341.007 C 264.644 339.092,264.667 339.167,263.527 339.167 L 262.553 339.167 262.354 340.055 M37.667 340.477 C 37.346 340.920,36.652 341.853,36.125 342.549 C 35.598 343.246,34.895 344.279,34.564 344.844 C 34.233 345.409,33.839 345.995,33.689 346.145 C 33.359 346.477,31.667 348.794,31.667 348.914 C 31.667 349.343,33.874 348.955,34.133 348.480 C 34.289 348.195,34.676 347.557,34.994 347.064 L 35.571 346.167 37.604 346.167 L 39.637 346.167 39.829 347.375 C 40.102 349.090,40.028 349.000,41.165 349.000 C 42.126 349.000,42.169 348.983,42.082 348.625 C 41.985 348.223,40.333 339.814,40.333 339.722 C 40.333 339.691,39.865 339.668,39.292 339.669 L 38.250 339.672 37.667 340.477 M182.762 339.929 C 182.112 340.578,182.501 341.333,183.484 341.333 C 184.381 341.333,184.667 341.125,184.667 340.473 C 184.667 339.717,183.350 339.341,182.762 339.929 M352.370 339.926 C 351.544 340.505,352.012 341.333,353.167 341.333 C 354.048 341.333,354.333 341.123,354.333 340.473 C 354.333 339.704,353.155 339.376,352.370 339.926 M177.667 340.718 C 177.192 340.880,177.055 341.033,176.929 341.542 C 176.780 342.144,176.748 342.167,176.054 342.167 C 175.590 342.167,175.333 342.241,175.331 342.375 C 175.330 342.490,175.284 342.752,175.228 342.958 C 175.138 343.297,175.187 343.333,175.731 343.333 C 176.457 343.333,176.460 343.359,175.931 345.190 C 174.957 348.562,175.261 349.248,177.680 349.134 L 178.750 349.083 178.802 348.458 L 178.853 347.833 178.171 347.833 C 177.322 347.833,177.245 347.653,177.554 346.396 C 177.687 345.857,177.889 344.948,178.004 344.375 L 178.212 343.333 179.337 343.333 C 180.362 343.333,180.470 343.300,180.562 342.958 C 180.762 342.211,180.711 342.167,179.646 342.167 L 178.625 342.167 178.725 341.708 C 178.780 341.456,178.873 341.081,178.932 340.875 C 179.058 340.434,178.647 340.383,177.667 340.718 M347.402 340.657 C 346.652 340.836,346.550 340.934,346.428 341.581 C 346.324 342.133,346.281 342.167,345.659 342.167 C 345.244 342.167,344.999 342.244,344.998 342.375 C 344.996 342.490,344.950 342.752,344.895 342.958 C 344.806 343.290,344.856 343.333,345.326 343.333 L 345.857 343.333 345.739 344.292 C 345.673 344.819,345.528 345.513,345.415 345.836 C 344.559 348.276,345.089 349.227,347.255 349.133 L 348.417 349.083 348.468 348.458 L 348.520 347.833 347.778 347.833 C 346.764 347.833,346.736 347.659,347.375 345.320 L 347.917 343.335 349.022 343.334 C 350.027 343.333,350.137 343.299,350.228 342.958 C 350.429 342.211,350.378 342.167,349.313 342.167 L 348.292 342.167 348.392 341.708 C 348.447 341.456,348.540 341.081,348.599 340.875 C 348.716 340.462,348.434 340.410,347.402 340.657 M39.490 344.625 C 39.500 344.987,39.447 345.000,38.001 345.000 L 36.503 345.000 37.710 343.208 L 38.917 341.417 39.198 342.833 C 39.353 343.613,39.485 344.419,39.490 344.625 M48.037 342.235 C 47.645 342.363,47.137 342.590,46.907 342.741 C 46.496 343.010,46.492 343.008,46.596 342.590 C 46.701 342.175,46.685 342.167,45.782 342.167 L 44.861 342.167 44.680 343.008 C 44.581 343.471,44.499 344.015,44.498 344.217 C 44.497 344.418,44.380 344.996,44.238 345.500 C 43.672 347.516,42.667 351.357,42.667 351.507 C 42.667 351.595,43.062 351.667,43.545 351.667 L 44.424 351.667 44.753 350.411 L 45.083 349.156 47.000 349.116 C 49.456 349.064,50.660 348.465,51.759 346.748 C 53.620 343.839,51.394 341.139,48.037 342.235 M57.799 342.165 C 57.550 342.240,57.130 342.455,56.864 342.644 L 56.382 342.988 56.460 342.577 C 56.536 342.181,56.506 342.167,55.630 342.167 L 54.720 342.167 54.503 343.625 C 54.384 344.427,54.115 345.693,53.905 346.437 C 53.695 347.182,53.472 348.063,53.410 348.396 L 53.296 349.000 54.204 349.000 L 55.112 349.000 55.417 347.666 C 56.006 345.088,57.057 343.713,58.571 343.543 L 59.333 343.457 59.333 342.728 C 59.333 341.935,58.985 341.807,57.799 342.165 M62.367 342.316 C 59.869 343.179,58.356 346.233,59.535 348.033 C 60.510 349.520,65.794 349.652,65.724 348.187 C 65.689 347.438,65.666 347.431,64.411 347.745 C 63.015 348.095,62.107 347.966,61.467 347.326 C 60.544 346.403,60.757 346.220,62.875 346.120 C 65.874 345.978,67.000 345.387,67.000 343.956 C 67.000 342.279,64.765 341.488,62.367 342.316 M72.204 342.235 C 71.812 342.363,71.306 342.589,71.079 342.738 C 70.678 343.000,70.667 342.996,70.667 342.587 C 70.667 341.916,69.221 341.950,69.071 342.625 C 69.014 342.877,68.638 344.317,68.234 345.825 C 67.320 349.239,67.309 349.000,68.376 349.000 L 69.251 349.000 69.705 347.230 C 70.318 344.835,71.328 343.581,72.803 343.383 C 74.453 343.162,74.542 344.271,73.230 348.708 C 73.156 348.961,73.266 349.000,74.066 349.000 L 74.987 349.000 75.169 348.292 C 75.269 347.902,75.535 346.946,75.759 346.167 C 76.728 342.799,75.303 341.223,72.204 342.235 M90.362 342.318 C 85.904 343.857,86.297 349.167,90.869 349.167 C 93.188 349.167,93.863 348.941,93.800 348.186 C 93.744 347.506,93.747 347.506,92.067 347.831 C 90.427 348.147,89.000 347.518,89.000 346.478 C 89.000 346.197,89.148 346.167,90.531 346.167 C 93.425 346.167,95.000 345.390,95.000 343.965 C 95.000 342.272,92.778 341.483,90.362 342.318 M100.083 342.120 C 99.900 342.164,99.518 342.376,99.233 342.590 L 98.717 342.979 98.795 342.573 C 98.869 342.182,98.837 342.167,97.952 342.167 L 97.031 342.167 96.911 343.042 C 96.845 343.523,96.540 344.806,96.233 345.893 C 95.926 346.981,95.627 348.124,95.569 348.435 L 95.463 349.000 96.451 349.000 L 97.439 349.000 97.734 347.708 C 98.362 344.960,99.269 343.708,100.751 343.541 C 101.500 343.457,101.659 343.254,101.664 342.375 C 101.667 341.991,101.033 341.889,100.083 342.120 M120.286 342.172 C 116.739 343.061,115.086 347.439,117.794 348.770 C 119.280 349.501,122.836 349.217,122.831 348.369 C 122.827 347.632,122.634 347.457,122.070 347.676 C 120.583 348.255,118.755 347.802,118.483 346.787 C 117.990 344.942,120.221 343.127,122.644 343.401 C 123.683 343.518,124.417 342.851,123.861 342.294 C 123.620 342.053,121.105 341.967,120.286 342.172 M127.789 342.181 C 124.177 343.032,122.791 347.341,125.662 348.792 C 127.916 349.931,131.482 348.815,132.570 346.630 C 134.061 343.638,131.545 341.297,127.789 342.181 M138.254 342.266 C 137.890 342.399,137.518 342.582,137.429 342.671 C 137.169 342.931,137.000 342.860,137.000 342.491 C 137.000 342.184,136.913 342.154,136.131 342.200 L 135.262 342.250 135.073 343.167 C 134.969 343.671,134.610 345.106,134.276 346.355 C 133.505 349.229,133.479 349.027,134.610 348.967 L 135.554 348.917 135.987 347.250 C 136.643 344.725,137.738 343.333,139.070 343.333 C 140.406 343.333,140.412 344.483,139.097 348.625 C 138.982 348.986,139.016 349.000,139.982 349.000 L 140.987 349.000 141.152 348.375 C 141.242 348.031,141.442 347.244,141.595 346.626 C 142.226 344.079,144.191 342.524,145.333 343.667 C 145.776 344.109,145.763 344.260,145.083 346.667 C 144.762 347.803,144.500 348.793,144.500 348.866 C 144.500 348.940,144.938 349.000,145.474 349.000 L 146.448 349.000 146.976 346.958 C 147.701 344.155,147.731 343.949,147.499 343.247 C 147.058 341.909,144.542 341.573,142.849 342.625 C 142.076 343.105,142.045 343.111,141.850 342.798 C 141.380 342.046,139.582 341.780,138.254 342.266 M153.115 342.318 C 152.675 342.496,152.201 342.735,152.063 342.850 C 151.847 343.029,151.828 342.996,151.924 342.612 C 152.035 342.170,152.029 342.167,151.128 342.167 L 150.220 342.167 149.692 344.292 C 149.402 345.460,148.951 347.204,148.691 348.167 C 148.431 349.129,148.166 350.314,148.102 350.801 L 147.986 351.685 148.864 351.634 L 149.741 351.583 150.090 350.351 L 150.439 349.118 151.902 349.153 C 154.433 349.214,156.203 348.333,157.231 346.501 C 158.882 343.560,156.369 341.005,153.115 342.318 M162.875 342.246 C 159.701 343.141,157.700 345.947,158.781 347.986 C 159.581 349.493,162.605 349.615,164.208 348.205 C 164.479 347.967,164.500 347.987,164.500 348.474 C 164.500 348.999,164.502 349.000,165.394 349.000 L 166.289 349.000 166.376 347.875 C 166.425 347.256,166.734 345.778,167.064 344.590 C 167.423 343.297,167.603 342.370,167.513 342.279 C 167.235 342.002,163.828 341.978,162.875 342.246 M172.691 342.178 C 172.475 342.265,172.092 342.482,171.840 342.662 L 171.382 342.988 171.460 342.577 C 171.536 342.181,171.507 342.167,170.618 342.167 L 169.698 342.167 169.579 343.034 C 169.513 343.511,169.168 344.954,168.813 346.240 C 167.994 349.203,167.970 349.000,169.134 349.000 L 170.101 349.000 170.480 347.430 C 171.061 345.017,172.267 343.500,173.603 343.500 C 174.150 343.500,174.326 343.228,174.331 342.375 C 174.334 341.959,173.490 341.858,172.691 342.178 M189.083 342.177 C 188.808 342.258,188.379 342.516,188.128 342.749 L 187.674 343.174 187.774 342.670 L 187.875 342.167 187.036 342.167 L 186.198 342.167 186.078 343.042 C 186.012 343.523,185.706 344.806,185.400 345.893 C 185.093 346.981,184.794 348.124,184.736 348.435 L 184.630 349.000 185.615 349.000 L 186.601 349.000 186.974 347.458 C 187.644 344.687,188.371 343.715,189.904 343.543 C 190.668 343.457,190.826 343.258,190.831 342.375 C 190.834 341.959,190.104 341.877,189.083 342.177 M200.555 342.309 C 197.955 343.207,196.528 346.196,197.785 348.113 C 198.717 349.536,203.958 349.599,203.891 348.187 C 203.855 347.438,203.832 347.431,202.578 347.745 C 201.181 348.095,200.274 347.966,199.634 347.326 C 198.710 346.403,198.923 346.220,201.042 346.120 C 204.040 345.978,205.167 345.387,205.167 343.956 C 205.167 342.286,202.932 341.487,200.555 342.309 M210.133 342.264 C 209.702 342.397,209.304 342.579,209.248 342.669 C 209.074 342.952,208.833 342.848,208.833 342.491 C 208.833 342.187,208.746 342.154,208.046 342.199 L 207.259 342.250 207.113 343.000 C 207.032 343.412,206.674 344.835,206.317 346.161 C 205.494 349.214,205.480 349.028,206.527 348.967 L 207.388 348.917 207.827 347.250 C 208.547 344.516,209.545 343.333,211.133 343.333 C 212.400 343.333,212.392 344.547,211.097 348.625 C 210.983 348.983,211.019 349.000,211.899 349.000 L 212.820 349.000 213.004 348.292 C 213.105 347.902,213.305 347.133,213.450 346.583 C 213.969 344.602,215.144 343.333,216.461 343.333 C 217.628 343.333,217.742 344.371,216.900 347.310 C 216.386 349.101,216.357 349.000,217.390 349.000 L 218.281 349.000 218.809 346.958 C 219.535 344.156,219.564 343.949,219.333 343.249 C 218.867 341.835,216.087 341.585,214.378 342.801 C 213.899 343.143,213.898 343.143,213.690 342.809 C 213.212 342.043,211.636 341.802,210.133 342.264 M225.371 342.235 C 224.979 342.363,224.470 342.590,224.241 342.741 C 223.828 343.011,223.825 343.009,223.932 342.581 C 224.040 342.151,224.035 342.148,223.147 342.199 L 222.253 342.250 222.144 343.000 C 222.084 343.412,221.883 344.313,221.697 345.000 C 220.615 349.008,220.000 351.368,220.000 351.515 C 220.000 351.615,220.392 351.663,220.958 351.633 L 221.917 351.583 222.167 350.351 L 222.417 349.119 224.013 349.152 C 226.439 349.202,227.991 348.469,229.088 346.755 C 230.953 343.839,228.732 341.138,225.371 342.235 M234.965 342.165 C 234.717 342.240,234.297 342.455,234.031 342.644 L 233.548 342.988 233.627 342.577 C 233.702 342.185,233.668 342.167,232.868 342.167 L 232.031 342.167 231.911 343.042 C 231.845 343.523,231.540 344.806,231.233 345.893 C 230.926 346.981,230.627 348.124,230.569 348.435 L 230.463 349.000 231.371 349.000 L 232.279 349.000 232.583 347.666 C 233.170 345.098,234.225 343.713,235.723 343.544 C 236.502 343.456,236.659 343.262,236.664 342.375 C 236.667 341.965,235.929 341.874,234.965 342.165 M239.534 342.316 C 236.507 343.361,235.346 347.129,237.554 348.740 C 238.370 349.336,242.546 349.267,242.926 348.651 C 243.167 348.261,242.810 347.467,242.442 347.574 C 240.512 348.134,239.128 348.011,238.509 347.224 C 237.809 346.333,237.969 346.218,240.042 346.120 C 243.040 345.978,244.167 345.387,244.167 343.956 C 244.167 342.279,241.932 341.488,239.534 342.316 M249.371 342.235 C 248.979 342.363,248.472 342.589,248.246 342.738 C 247.845 343.000,247.833 342.996,247.833 342.587 C 247.833 341.916,246.388 341.950,246.237 342.625 C 246.181 342.877,245.805 344.317,245.401 345.825 C 244.480 349.264,244.459 349.000,245.656 349.000 L 246.646 349.000 246.746 348.208 C 247.164 344.899,248.964 342.787,250.814 343.438 C 251.699 343.749,251.665 344.167,250.393 348.708 C 250.322 348.961,250.435 349.000,251.232 349.000 L 252.154 349.000 252.336 348.292 C 252.436 347.902,252.701 346.946,252.926 346.167 C 253.895 342.799,252.470 341.223,249.371 342.235 M267.825 342.193 C 264.591 343.057,263.253 347.454,265.818 348.785 C 266.931 349.363,270.716 349.261,271.099 348.642 C 271.365 348.211,270.968 347.467,270.525 347.567 C 267.674 348.212,266.333 347.892,266.333 346.567 C 266.333 346.226,266.425 346.205,268.208 346.129 C 271.092 346.006,272.167 345.403,272.167 343.907 C 272.167 342.340,270.192 341.560,267.825 342.193 M277.191 342.178 C 276.975 342.265,276.592 342.482,276.340 342.662 L 275.882 342.988 275.960 342.577 C 276.036 342.181,276.007 342.167,275.118 342.167 L 274.198 342.167 274.079 343.034 C 274.013 343.511,273.668 344.954,273.313 346.240 C 272.494 349.203,272.470 349.000,273.634 349.000 L 274.601 349.000 274.983 347.416 C 275.592 344.888,276.708 343.500,278.131 343.500 C 278.647 343.500,278.826 343.213,278.831 342.375 C 278.834 341.959,277.990 341.858,277.191 342.178 M297.722 342.150 C 294.083 343.082,292.383 347.421,295.128 348.770 C 296.614 349.501,300.169 349.217,300.164 348.369 C 300.160 347.677,299.959 347.461,299.486 347.639 C 296.438 348.793,294.577 346.591,296.753 344.407 C 297.611 343.546,298.588 343.250,300.055 343.407 L 301.121 343.522 301.229 342.980 C 301.289 342.681,301.263 342.363,301.172 342.272 C 300.962 342.062,298.418 341.972,297.722 342.150 M305.122 342.181 C 301.511 343.032,300.124 347.341,302.995 348.792 C 305.193 349.902,308.628 348.884,309.846 346.761 C 311.538 343.811,308.931 341.284,305.122 342.181 M315.633 342.264 C 315.202 342.397,314.804 342.579,314.748 342.669 C 314.574 342.952,314.333 342.849,314.333 342.491 C 314.333 342.184,314.246 342.154,313.464 342.200 L 312.596 342.250 312.404 343.167 C 312.299 343.671,311.978 344.982,311.690 346.080 C 310.941 348.936,310.952 349.030,312.027 348.967 L 312.888 348.917 313.327 347.250 C 313.950 344.884,314.354 344.241,315.617 343.603 C 317.680 342.561,317.908 343.971,316.430 348.625 C 316.315 348.986,316.349 349.000,317.316 349.000 L 318.320 349.000 318.504 348.292 C 318.605 347.902,318.805 347.133,318.950 346.583 C 319.602 344.095,321.559 342.559,322.667 343.667 C 323.109 344.109,323.096 344.260,322.417 346.667 C 322.096 347.803,321.833 348.793,321.833 348.866 C 321.833 348.940,322.272 349.000,322.807 349.000 L 323.781 349.000 324.309 346.958 C 325.035 344.156,325.064 343.949,324.833 343.249 C 324.360 341.814,321.600 341.576,319.855 342.818 C 319.402 343.141,319.397 343.141,319.190 342.809 C 318.712 342.043,317.136 341.802,315.633 342.264 M330.449 342.318 C 330.008 342.496,329.535 342.735,329.397 342.850 C 329.181 343.029,329.161 342.996,329.258 342.612 C 329.369 342.170,329.362 342.167,328.470 342.167 L 327.570 342.167 326.771 345.458 C 326.331 347.269,325.827 349.322,325.652 350.020 C 325.216 351.756,325.195 351.692,326.204 351.634 L 327.074 351.583 327.423 350.351 L 327.772 349.118 329.235 349.153 C 332.390 349.229,334.749 347.543,335.103 344.959 C 335.410 342.721,332.933 341.316,330.449 342.318 M339.201 342.316 C 336.506 343.246,335.113 346.118,336.402 348.085 C 337.348 349.528,342.625 349.615,342.557 348.187 C 342.522 347.438,342.499 347.431,341.245 347.745 C 339.848 348.095,338.941 347.966,338.300 347.326 C 337.377 346.403,337.590 346.220,339.708 346.120 C 342.707 345.978,343.833 345.387,343.833 343.956 C 343.833 342.279,341.598 341.488,339.201 342.316 M358.799 342.165 C 358.550 342.240,358.130 342.455,357.864 342.644 L 357.382 342.988 357.462 342.568 C 357.541 342.156,357.524 342.149,356.649 342.199 L 355.755 342.250 355.561 343.583 C 355.454 344.317,355.177 345.563,354.945 346.354 C 354.713 347.144,354.472 348.063,354.410 348.396 L 354.296 349.000 355.204 349.000 L 356.112 349.000 356.417 347.666 C 357.003 345.100,358.058 343.713,359.554 343.544 C 360.310 343.459,360.500 343.195,360.500 342.229 C 360.500 341.972,359.558 341.936,358.799 342.165 M105.167 342.351 C 105.167 342.546,105.711 344.409,106.516 346.966 C 106.883 348.133,106.962 348.594,106.834 348.833 C 106.595 349.279,104.906 350.458,104.323 350.586 C 103.313 350.807,103.458 352.104,104.474 351.940 C 106.388 351.629,107.912 350.413,109.833 347.664 C 110.429 346.811,111.495 345.288,112.201 344.279 C 113.660 342.198,113.662 342.167,112.354 342.167 L 111.395 342.167 110.031 344.335 C 109.281 345.527,108.667 346.573,108.667 346.658 C 108.667 347.405,108.292 346.668,107.928 345.206 C 107.684 344.222,107.409 343.135,107.319 342.792 L 107.154 342.167 106.160 342.167 C 105.546 342.167,105.167 342.237,105.167 342.351 M181.992 343.042 C 181.878 343.523,181.495 344.966,181.142 346.248 C 180.327 349.207,180.301 349.000,181.490 349.000 L 182.480 349.000 182.583 348.208 C 182.676 347.494,183.127 345.672,183.766 343.428 C 184.122 342.179,184.115 342.167,183.100 342.167 L 182.200 342.167 181.992 343.042 M282.333 342.351 C 282.333 342.546,282.878 344.409,283.683 346.966 C 284.043 348.110,284.127 348.596,284.005 348.825 C 283.774 349.255,282.384 350.249,281.538 350.587 C 280.766 350.896,280.740 350.947,281.033 351.590 C 281.540 352.703,285.794 350.242,286.499 348.428 C 286.572 348.238,286.997 347.596,287.444 347.000 C 288.543 345.532,290.503 342.687,290.613 342.400 C 290.684 342.215,290.480 342.167,289.628 342.167 L 288.554 342.167 287.547 343.792 C 286.994 344.685,286.492 345.567,286.432 345.750 C 286.372 345.933,286.149 346.296,285.936 346.556 L 285.548 347.028 285.099 345.222 C 284.852 344.229,284.576 343.135,284.485 342.792 L 284.320 342.167 283.327 342.167 C 282.712 342.167,282.333 342.237,282.333 342.351 M351.176 344.375 C 349.941 349.526,349.955 349.000,351.051 349.000 L 351.936 349.000 352.218 347.875 C 352.373 347.256,352.761 345.813,353.081 344.667 C 353.827 341.988,353.855 342.167,352.686 342.167 L 351.705 342.167 351.176 344.375 M64.919 343.670 C 65.501 344.312,64.144 344.997,62.287 344.999 L 61.323 345.000 61.670 344.531 C 62.529 343.369,64.237 342.916,64.919 343.670 M93.036 343.628 C 93.743 344.239,92.223 345.000,90.298 345.000 L 89.323 345.000 89.670 344.531 C 90.516 343.387,92.226 342.928,93.036 343.628 M203.086 343.670 C 203.668 344.312,202.311 344.997,200.453 344.999 L 199.490 345.000 199.837 344.531 C 200.696 343.369,202.404 342.916,203.086 343.670 M242.185 343.701 C 242.563 344.407,241.302 345.000,239.421 345.000 L 238.490 345.000 238.837 344.531 C 239.705 343.357,241.732 342.854,242.185 343.701 M270.203 343.628 C 270.894 344.225,269.397 345.000,267.553 345.000 C 266.592 345.000,266.526 344.933,266.962 344.396 C 267.822 343.338,269.428 342.958,270.203 343.628 M341.754 343.671 C 342.335 344.313,340.976 344.997,339.113 344.999 L 338.142 345.000 338.494 344.553 C 339.446 343.343,341.061 342.906,341.754 343.671 M49.875 343.664 C 51.739 345.130,48.716 348.555,46.160 347.874 C 45.436 347.681,45.434 347.104,46.152 345.565 C 47.001 343.747,48.808 342.824,49.875 343.664 M84.033 344.000 C 83.811 346.558,81.814 348.484,80.118 347.775 C 77.829 346.819,80.230 343.256,83.083 343.375 L 84.083 343.417 84.033 344.000 M130.139 343.569 C 132.427 344.752,129.667 348.771,127.258 347.764 C 126.094 347.278,125.832 346.184,126.575 344.916 C 127.351 343.591,128.986 342.973,130.139 343.569 M155.140 343.600 C 157.001 344.904,154.214 348.387,151.699 347.901 C 150.746 347.717,150.702 347.245,151.481 345.575 C 152.324 343.767,154.049 342.836,155.140 343.600 M165.333 343.524 C 165.333 345.568,163.033 348.266,161.597 347.905 C 159.085 347.275,161.537 343.362,164.458 343.340 C 165.007 343.336,165.333 343.404,165.333 343.524 M227.343 343.760 C 228.877 345.393,225.945 348.527,223.493 347.874 C 222.769 347.681,222.767 347.104,223.485 345.565 C 224.374 343.662,226.372 342.727,227.343 343.760 M261.422 343.509 C 262.022 344.480,260.148 347.434,258.683 347.829 C 255.969 348.560,256.104 344.777,258.833 343.598 C 259.504 343.308,261.261 343.248,261.422 343.509 M307.473 343.569 C 309.761 344.752,307.000 348.771,304.591 347.764 C 303.427 347.278,303.165 346.184,303.908 344.916 C 304.685 343.591,306.320 342.973,307.473 343.569 M332.473 343.600 C 334.166 344.786,332.055 347.917,329.563 347.917 C 328.192 347.917,328.062 347.774,328.399 346.642 C 329.129 344.189,331.155 342.677,332.473 343.600 M190.872 347.118 C 190.634 347.164,190.364 347.448,190.141 347.887 C 189.946 348.270,189.535 348.979,189.227 349.462 C 188.434 350.704,188.470 350.905,189.458 350.773 C 190.332 350.657,190.459 350.542,191.845 348.599 C 192.981 347.007,192.809 346.746,190.872 347.118 " stroke="none" fill="#040404" fill-rule="evenodd"></path><path id="path3" d="M262.917 61.109 C 254.456 63.739,246.938 66.235,246.878 66.433 C 246.847 66.534,247.570 67.247,248.484 68.017 C 249.474 68.850,250.151 69.544,250.157 69.732 C 250.167 70.069,250.096 70.144,237.901 82.583 C 233.677 86.892,228.543 92.142,226.492 94.250 C 224.442 96.358,222.122 98.729,221.338 99.519 C 219.269 101.603,217.905 102.187,215.951 101.826 C 214.576 101.571,204.263 101.904,202.833 102.248 C 199.481 103.056,194.882 105.473,191.601 108.151 C 190.950 108.683,189.517 109.754,188.417 110.531 C 186.396 111.958,180.362 116.278,176.833 118.823 C 171.764 122.478,172.626 122.334,152.833 122.835 C 148.846 122.936,143.621 123.070,141.222 123.134 L 136.860 123.250 136.089 123.794 C 135.664 124.093,131.440 127.657,126.700 131.715 C 121.961 135.772,116.021 140.842,113.500 142.982 C 109.011 146.793,108.333 147.407,108.333 147.664 C 108.333 147.804,112.427 151.149,112.750 151.273 C 112.861 151.316,113.326 151.028,113.783 150.634 C 114.522 149.996,124.308 141.297,130.583 135.699 C 131.867 134.555,133.514 133.085,134.244 132.434 C 134.974 131.783,136.137 130.734,136.827 130.104 C 138.781 128.321,137.961 128.397,159.583 127.996 C 174.674 127.716,173.489 128.098,185.833 119.526 C 188.079 117.966,191.153 115.841,192.665 114.803 C 194.176 113.766,196.317 112.269,197.424 111.478 C 201.463 108.590,203.478 108.046,209.401 108.247 C 218.114 108.543,223.477 106.549,228.216 101.250 C 228.954 100.425,231.107 98.100,233.002 96.083 C 234.897 94.067,237.371 91.404,238.501 90.167 C 239.631 88.929,242.063 86.304,243.904 84.333 C 245.746 82.362,248.069 79.850,249.067 78.750 C 251.897 75.629,254.535 73.000,254.837 73.000 C 254.989 73.000,256.626 73.795,258.477 74.766 C 261.895 76.561,262.217 76.661,262.386 75.972 C 262.569 75.226,264.833 61.410,264.833 61.040 C 264.833 60.570,264.626 60.577,262.917 61.109 M87.078 66.542 L 86.083 67.583 87.125 66.589 C 87.698 66.041,88.167 65.573,88.167 65.547 C 88.167 65.424,88.002 65.574,87.078 66.542 M159.411 68.842 C 152.218 69.541,147.468 71.906,144.616 76.210 C 143.837 77.386,143.929 77.392,142.628 76.097 C 139.959 73.441,136.076 71.643,131.436 70.916 C 128.845 70.509,122.259 70.638,120.083 71.137 C 109.900 73.475,104.777 81.106,108.350 88.615 C 109.131 90.255,109.124 90.154,108.481 90.760 C 104.974 94.069,106.870 102.107,112.167 106.381 C 115.546 109.108,120.042 110.324,126.775 110.330 C 135.136 110.338,140.737 107.916,144.059 102.856 L 144.865 101.630 146.224 103.039 C 149.983 106.936,154.698 108.580,162.083 108.567 C 171.323 108.552,177.420 105.593,180.414 99.673 C 180.668 99.172,181.341 98.310,181.911 97.756 C 183.353 96.355,183.517 95.826,183.623 92.228 C 183.736 88.402,183.376 86.461,182.402 85.656 C 181.949 85.280,181.508 84.153,181.504 83.360 C 181.455 73.754,172.104 67.609,159.411 68.842 M165.083 73.674 C 172.808 74.406,176.690 77.535,177.405 83.603 C 177.486 84.292,177.445 84.531,177.191 84.845 L 176.875 85.234 170.813 85.361 C 167.478 85.431,164.590 85.528,164.395 85.576 C 163.351 85.832,162.840 85.232,162.836 83.745 C 162.833 82.633,162.501 82.167,161.712 82.167 C 160.464 82.167,160.500 81.970,160.500 88.872 L 160.500 95.026 160.987 95.513 C 162.379 96.904,164.507 95.296,163.250 93.803 C 162.857 93.336,162.833 93.195,162.833 91.352 C 162.833 88.448,161.866 88.750,171.167 88.750 C 180.472 88.750,179.500 88.444,179.500 91.376 C 179.500 93.531,179.367 94.000,178.755 94.000 C 177.820 94.000,177.576 94.239,177.369 95.359 C 176.497 100.077,171.589 103.233,164.443 103.672 C 154.474 104.283,148.422 101.349,146.555 95.000 C 146.141 93.592,146.033 84.862,146.406 82.958 C 147.715 76.280,154.899 72.709,165.083 73.674 M129.802 75.592 C 136.482 76.369,141.315 79.492,141.913 83.417 C 142.127 84.817,141.318 84.965,133.277 84.989 L 129.803 85.000 129.009 84.176 C 127.807 82.929,126.311 82.804,126.199 83.942 C 126.098 84.970,127.901 86.106,132.500 87.914 C 140.753 91.157,143.348 94.553,141.116 99.193 C 138.789 104.032,130.946 106.517,122.009 105.247 C 115.414 104.309,111.496 101.065,110.923 96.067 C 110.749 94.550,110.730 94.559,114.369 94.423 C 122.352 94.125,122.147 94.095,122.727 95.680 C 123.433 97.610,125.819 98.697,126.924 97.591 C 128.117 96.398,127.129 95.679,119.409 92.127 C 115.119 90.153,113.036 88.503,111.957 86.224 C 109.754 81.573,114.461 76.789,122.333 75.677 C 123.021 75.580,123.771 75.474,124.000 75.440 C 125.053 75.285,127.782 75.357,129.802 75.592 M99.248 190.417 C 99.248 205.450,99.268 211.575,99.292 204.029 C 99.316 196.482,99.316 184.182,99.292 176.695 C 99.268 169.209,99.248 175.383,99.248 190.417 M137.081 190.417 C 137.081 205.267,137.101 211.317,137.125 203.862 C 137.149 196.407,137.149 184.257,137.125 176.862 C 137.101 169.467,137.081 175.567,137.081 190.417 M109.125 218.458 C 114.098 218.483,122.235 218.483,127.208 218.458 C 132.181 218.434,128.112 218.414,118.167 218.414 C 108.221 218.414,104.152 218.434,109.125 218.458 M157.888 218.458 C 162.914 218.483,171.089 218.483,176.054 218.458 C 181.020 218.434,176.908 218.414,166.917 218.414 C 156.925 218.414,152.862 218.434,157.888 218.458 M206.221 218.458 C 211.247 218.483,219.422 218.483,224.388 218.458 C 229.354 218.434,225.242 218.414,215.250 218.414 C 205.258 218.414,201.195 218.434,206.221 218.458 M254.388 218.458 C 259.414 218.483,267.589 218.483,272.554 218.458 C 277.520 218.434,273.408 218.414,263.417 218.414 C 253.425 218.414,249.362 218.434,254.388 218.458 M189.458 257.284 C 189.665 257.324,190.002 257.324,190.208 257.284 C 190.415 257.245,190.246 257.212,189.833 257.212 C 189.421 257.212,189.252 257.245,189.458 257.284 M200.127 257.285 C 200.334 257.324,200.634 257.323,200.794 257.281 C 200.953 257.239,200.783 257.207,200.417 257.209 C 200.050 257.211,199.920 257.245,200.127 257.285 M119.534 281.171 C 119.231 281.722,119.029 282.246,119.085 282.336 C 119.141 282.426,119.069 282.500,118.927 282.500 C 118.696 282.500,118.667 283.232,118.667 289.083 L 118.667 295.667 120.250 295.667 L 121.833 295.667 121.833 289.083 L 121.833 282.500 121.208 282.497 C 120.865 282.496,120.666 282.440,120.767 282.372 C 120.945 282.254,122.000 280.445,122.000 280.259 C 122.000 280.208,121.569 280.168,121.042 280.169 L 120.083 280.171 119.534 281.171 M21.500 283.750 L 21.500 285.000 23.417 285.000 L 25.333 285.000 25.333 290.333 L 25.333 295.667 26.917 295.667 L 28.500 295.667 28.500 290.333 L 28.500 285.000 30.167 285.000 L 31.833 285.000 31.833 283.750 L 31.833 282.500 26.667 282.500 L 21.500 282.500 21.500 283.750 M33.667 289.083 L 33.667 295.667 38.841 295.667 L 44.015 295.667 43.966 294.458 L 43.917 293.250 40.292 293.205 L 36.667 293.160 36.667 291.750 L 36.667 290.340 40.292 290.295 L 43.917 290.250 43.917 289.083 L 43.917 287.917 40.292 287.872 L 36.667 287.827 36.667 286.417 L 36.667 285.007 40.292 284.962 L 43.917 284.917 43.966 283.708 L 44.015 282.500 38.841 282.500 L 33.667 282.500 33.667 289.083 M45.833 289.083 L 45.833 295.667 51.000 295.667 L 56.167 295.667 56.167 294.417 L 56.167 293.167 52.583 293.167 L 49.000 293.167 49.000 289.083 L 49.000 285.000 52.583 285.000 L 56.167 285.000 56.167 283.750 L 56.167 282.500 51.000 282.500 L 45.833 282.500 45.833 289.083 M58.000 289.083 L 58.000 295.667 59.500 295.667 L 61.000 295.667 61.004 292.125 L 61.008 288.583 61.570 289.500 C 61.879 290.004,62.540 291.054,63.038 291.833 C 63.537 292.612,64.260 293.794,64.646 294.458 L 65.348 295.667 66.841 295.667 L 68.333 295.667 68.333 289.083 L 68.333 282.500 66.833 282.500 L 65.333 282.500 65.333 285.770 C 65.333 288.659,65.304 289.017,65.083 288.833 C 64.946 288.719,64.833 288.523,64.833 288.396 C 64.833 288.270,64.770 288.167,64.693 288.167 C 64.616 288.167,64.340 287.773,64.079 287.292 C 63.819 286.810,63.038 285.536,62.344 284.460 L 61.083 282.504 59.542 282.502 L 58.000 282.500 58.000 289.083 M70.000 289.083 L 70.000 295.667 75.167 295.667 L 80.333 295.667 80.333 289.083 L 80.333 282.500 75.167 282.500 L 70.000 282.500 70.000 289.083 M82.333 289.083 L 82.333 295.667 87.500 295.667 L 92.667 295.667 92.667 294.417 L 92.667 293.167 89.000 293.167 L 85.333 293.167 85.333 287.833 L 85.333 282.500 83.833 282.500 L 82.333 282.500 82.333 289.083 M94.373 289.042 L 94.417 295.583 99.542 295.627 L 104.667 295.671 104.667 289.086 L 104.667 282.500 99.498 282.500 L 94.329 282.500 94.373 289.042 M106.667 289.083 L 106.667 295.667 111.833 295.667 L 117.000 295.667 117.000 291.750 L 117.000 287.833 114.083 287.833 L 111.167 287.833 111.167 289.083 L 111.167 290.333 112.583 290.333 L 114.000 290.333 114.000 291.750 L 114.000 293.167 111.833 293.167 L 109.667 293.167 109.667 289.083 L 109.667 285.000 113.333 285.000 L 117.000 285.000 117.000 283.750 L 117.000 282.500 111.833 282.500 L 106.667 282.500 106.667 289.083 M123.667 289.083 L 123.667 295.667 125.250 295.667 L 126.833 295.667 126.833 293.000 L 126.833 290.333 129.000 290.333 L 131.167 290.333 131.167 293.000 L 131.167 295.667 132.583 295.667 L 134.000 295.667 134.000 289.083 L 134.000 282.500 128.833 282.500 L 123.667 282.500 123.667 289.083 M141.167 286.417 L 141.167 290.333 144.833 290.333 L 148.500 290.333 148.500 291.750 L 148.500 293.167 144.833 293.167 L 141.167 293.167 141.167 294.417 L 141.167 295.667 146.333 295.667 L 151.500 295.667 151.500 291.750 L 151.500 287.833 147.833 287.833 L 144.167 287.833 144.167 286.417 L 144.167 285.000 147.833 285.000 L 151.500 285.000 151.500 283.750 L 151.500 282.500 146.333 282.500 L 141.167 282.500 141.167 286.417 M153.167 289.083 L 153.167 295.667 158.333 295.667 L 163.500 295.667 163.500 289.083 L 163.500 282.500 162.083 282.500 L 160.667 282.500 160.667 287.833 L 160.667 293.167 158.500 293.167 L 156.333 293.167 156.333 287.833 L 156.333 282.500 154.750 282.500 L 153.167 282.500 153.167 289.083 M165.500 289.083 L 165.500 295.667 167.000 295.667 L 168.500 295.667 168.500 293.000 L 168.500 290.333 172.167 290.333 L 175.833 290.333 175.833 286.417 L 175.833 282.500 170.667 282.500 L 165.500 282.500 165.500 289.083 M177.667 289.083 L 177.667 295.667 182.750 295.667 L 187.833 295.667 187.833 294.417 L 187.833 293.167 184.250 293.167 L 180.667 293.167 180.667 291.750 L 180.667 290.333 184.250 290.333 L 187.833 290.333 187.833 289.083 L 187.833 287.833 184.250 287.833 L 180.667 287.833 180.667 286.417 L 180.667 285.000 184.250 285.000 L 187.833 285.000 187.833 283.750 L 187.833 282.500 182.750 282.500 L 177.667 282.500 177.667 289.083 M189.833 289.083 L 189.833 295.667 191.333 295.667 L 192.833 295.667 192.833 293.000 L 192.833 290.333 193.292 290.335 C 193.666 290.337,193.864 290.513,194.368 291.294 C 194.708 291.820,195.501 293.000,196.130 293.917 L 197.275 295.583 198.721 295.631 C 200.483 295.690,200.472 295.761,199.033 293.610 C 198.410 292.679,197.694 291.560,197.443 291.125 L 196.986 290.333 198.576 290.333 L 200.167 290.333 200.167 286.417 L 200.167 282.500 195.000 282.500 L 189.833 282.500 189.833 289.083 M202.000 289.083 L 202.000 295.667 203.500 295.667 L 205.000 295.667 205.000 289.083 L 205.000 282.500 203.500 282.500 L 202.000 282.500 202.000 289.083 M206.833 289.086 L 206.833 295.671 211.958 295.627 L 217.083 295.583 217.127 289.042 L 217.171 282.500 212.002 282.500 L 206.833 282.500 206.833 289.086 M219.000 289.090 L 219.000 295.679 220.542 295.631 L 222.083 295.583 222.129 292.958 C 222.174 290.370,222.180 290.333,222.546 290.334 C 222.762 290.334,223.021 290.506,223.167 290.746 C 223.304 290.972,224.092 292.168,224.917 293.403 L 226.417 295.649 227.875 295.658 C 229.639 295.669,229.626 295.758,228.176 293.597 C 227.539 292.648,227.064 291.825,227.120 291.769 C 227.176 291.713,227.135 291.667,227.028 291.667 C 226.921 291.667,226.833 291.584,226.833 291.484 C 226.833 291.384,226.678 291.084,226.489 290.817 L 226.144 290.333 227.739 290.333 L 229.333 290.333 229.333 286.417 L 229.333 282.500 224.167 282.500 L 219.000 282.500 219.000 289.090 M236.333 289.083 L 236.333 295.667 241.500 295.667 L 246.667 295.667 246.667 289.083 L 246.667 282.500 245.167 282.500 L 243.667 282.500 243.667 287.833 L 243.667 293.167 241.500 293.167 L 239.333 293.167 239.333 287.833 L 239.333 282.500 237.833 282.500 L 236.333 282.500 236.333 289.083 M248.500 289.083 L 248.500 295.667 250.083 295.667 L 251.667 295.667 251.680 292.125 C 251.693 288.930,251.717 288.632,251.932 289.083 C 252.062 289.358,252.616 290.296,253.163 291.167 C 253.709 292.037,254.552 293.405,255.037 294.206 L 255.917 295.661 257.375 295.664 L 258.833 295.667 258.833 289.083 L 258.833 282.500 257.420 282.500 L 256.007 282.500 255.962 285.833 L 255.917 289.166 254.123 286.375 C 253.136 284.839,252.199 283.402,252.039 283.180 C 251.880 282.958,251.769 282.715,251.792 282.639 C 251.815 282.562,251.083 282.500,250.167 282.500 L 248.500 282.500 248.500 289.083 M260.667 289.083 L 260.667 295.667 262.167 295.667 L 263.667 295.667 263.667 289.083 L 263.667 282.500 262.167 282.500 L 260.667 282.500 260.667 289.083 M265.667 282.597 C 265.667 282.722,266.672 286.784,266.798 287.167 C 266.843 287.304,266.898 287.529,266.920 287.667 C 266.957 287.901,267.504 289.968,268.585 293.958 L 269.047 295.667 270.905 295.667 L 272.762 295.667 274.388 289.208 C 275.282 285.656,276.011 282.694,276.007 282.625 C 275.982 282.190,273.004 282.510,272.902 282.958 C 272.845 283.210,272.648 284.017,272.466 284.750 C 272.283 285.483,272.101 286.271,272.060 286.500 C 272.020 286.729,271.941 287.067,271.884 287.250 C 271.828 287.433,271.762 287.755,271.738 287.965 C 271.545 289.667,270.690 292.156,270.653 291.125 C 270.646 290.919,270.215 288.912,269.695 286.667 L 268.749 282.583 267.208 282.535 C 266.360 282.509,265.667 282.537,265.667 282.597 M277.667 289.083 L 277.667 295.667 282.833 295.667 L 288.000 295.667 288.000 294.417 L 288.000 293.167 284.417 293.167 L 280.833 293.167 280.833 291.750 L 280.833 290.333 284.417 290.333 L 288.000 290.333 288.000 289.083 L 288.000 287.833 284.417 287.833 L 280.833 287.833 280.833 286.417 L 280.833 285.000 284.417 285.000 L 288.000 285.000 288.000 283.750 L 288.000 282.500 282.833 282.500 L 277.667 282.500 277.667 289.083 M290.000 289.083 L 290.000 295.667 291.500 295.667 L 293.000 295.667 293.000 292.989 L 293.000 290.311 293.444 290.364 C 293.872 290.415,295.058 291.981,296.888 294.912 L 297.359 295.667 298.846 295.667 C 300.656 295.667,300.664 295.881,298.750 292.955 C 297.879 291.624,297.167 290.489,297.167 290.434 C 297.167 290.379,297.879 290.333,298.750 290.333 L 300.333 290.333 300.333 286.417 L 300.333 282.500 295.167 282.500 L 290.000 282.500 290.000 289.083 M302.039 286.375 L 302.083 290.250 305.792 290.295 L 309.500 290.340 309.500 291.750 L 309.500 293.160 305.792 293.205 L 302.083 293.250 302.034 294.458 L 301.985 295.667 307.159 295.667 L 312.333 295.667 312.333 291.750 L 312.333 287.833 308.750 287.833 L 305.167 287.833 305.167 286.417 L 305.167 285.000 308.750 285.000 L 312.333 285.000 312.333 283.750 L 312.333 282.500 307.164 282.500 L 301.994 282.500 302.039 286.375 M314.167 289.083 L 314.167 295.667 315.667 295.667 L 317.167 295.667 317.167 289.083 L 317.167 282.500 315.667 282.500 L 314.167 282.500 314.167 289.083 M319.167 283.750 L 319.167 285.000 321.083 285.000 L 323.000 285.000 323.000 290.333 L 323.000 295.667 324.500 295.667 L 326.000 295.667 326.000 290.333 L 326.000 285.000 327.750 285.000 L 329.500 285.000 329.500 283.750 L 329.500 282.500 324.333 282.500 L 319.167 282.500 319.167 283.750 M331.206 289.042 L 331.250 295.583 332.792 295.631 L 334.333 295.679 334.333 293.006 L 334.333 290.333 336.500 290.333 L 338.667 290.333 338.667 293.000 L 338.667 295.667 340.083 295.667 L 341.500 295.667 341.500 289.083 L 341.500 282.500 336.331 282.500 L 331.163 282.500 331.206 289.042 M343.500 289.083 L 343.500 295.667 345.000 295.667 L 346.500 295.667 346.500 292.989 L 346.500 290.311 346.941 290.364 C 347.340 290.412,350.202 294.145,350.623 295.167 C 350.799 295.596,351.042 295.661,352.458 295.664 C 354.145 295.667,354.159 295.846,352.250 292.938 C 351.379 291.611,350.667 290.483,350.667 290.430 C 350.667 290.377,351.379 290.333,352.250 290.333 L 353.833 290.333 353.833 286.417 L 353.833 282.500 348.667 282.500 L 343.500 282.500 343.500 289.083 M355.667 289.083 L 355.667 295.667 357.167 295.667 L 358.667 295.667 358.667 289.083 L 358.667 282.500 357.167 282.500 L 355.667 282.500 355.667 289.083 M360.500 289.083 L 360.500 295.667 362.000 295.667 L 363.500 295.667 363.500 293.000 L 363.500 290.333 365.667 290.333 L 367.833 290.333 367.833 293.000 L 367.833 295.667 369.250 295.667 L 370.667 295.667 370.667 289.083 L 370.667 282.500 365.583 282.500 L 360.500 282.500 360.500 289.083 M77.500 289.083 L 77.500 293.167 75.333 293.167 L 73.167 293.167 73.167 289.083 L 73.167 285.000 75.333 285.000 L 77.500 285.000 77.500 289.083 M101.833 289.083 L 101.833 293.167 99.667 293.167 L 97.500 293.167 97.500 289.083 L 97.500 285.000 99.667 285.000 L 101.833 285.000 101.833 289.083 M131.167 286.417 L 131.167 287.833 129.000 287.833 L 126.833 287.833 126.833 286.417 L 126.833 285.000 129.000 285.000 L 131.167 285.000 131.167 286.417 M172.833 286.417 L 172.833 287.833 170.667 287.833 L 168.500 287.833 168.500 286.417 L 168.500 285.000 170.667 285.000 L 172.833 285.000 172.833 286.417 M197.333 286.417 L 197.333 287.833 195.083 287.833 L 192.833 287.833 192.833 286.417 L 192.833 285.000 195.083 285.000 L 197.333 285.000 197.333 286.417 M214.167 289.083 L 214.167 293.167 212.000 293.167 L 209.833 293.167 209.833 289.083 L 209.833 285.000 212.000 285.000 L 214.167 285.000 214.167 289.083 M226.500 286.417 L 226.500 287.833 224.333 287.833 L 222.167 287.833 222.167 286.417 L 222.167 285.000 224.333 285.000 L 226.500 285.000 226.500 286.417 M297.333 286.417 L 297.333 287.833 295.167 287.833 L 293.000 287.833 293.000 286.417 L 293.000 285.000 295.167 285.000 L 297.333 285.000 297.333 286.417 M338.667 286.417 L 338.667 287.833 336.500 287.833 L 334.333 287.833 334.333 286.417 L 334.333 285.000 336.500 285.000 L 338.667 285.000 338.667 286.417 M350.833 286.417 L 350.833 287.833 348.667 287.833 L 346.500 287.833 346.500 286.417 L 346.500 285.000 348.667 285.000 L 350.833 285.000 350.833 286.417 M367.833 286.417 L 367.833 287.833 365.667 287.833 L 363.500 287.833 363.500 286.417 L 363.500 285.000 365.667 285.000 L 367.833 285.000 367.833 286.417 " stroke="none" fill="#7dac9f" fill-rule="evenodd"></path><path id="path4" d="M193.042 24.125 C 194.394 24.153,196.606 24.153,197.958 24.125 C 199.310 24.097,198.204 24.074,195.500 24.074 C 192.796 24.074,191.690 24.097,193.042 24.125 M186.375 24.282 C 186.535 24.323,186.798 24.323,186.958 24.282 C 187.119 24.240,186.987 24.205,186.667 24.205 C 186.346 24.205,186.215 24.240,186.375 24.282 M203.708 24.282 C 203.869 24.323,204.131 24.323,204.292 24.282 C 204.452 24.240,204.321 24.205,204.000 24.205 C 203.679 24.205,203.548 24.240,203.708 24.282 M145.083 31.667 C 144.625 31.836,144.362 31.974,144.500 31.974 C 144.637 31.974,145.125 31.836,145.583 31.667 C 146.042 31.498,146.304 31.359,146.167 31.359 C 146.029 31.359,145.542 31.498,145.083 31.667 M245.417 31.833 C 245.600 31.912,245.862 31.977,246.000 31.977 C 246.158 31.977,246.127 31.924,245.917 31.833 C 245.733 31.755,245.471 31.690,245.333 31.690 C 245.176 31.690,245.207 31.743,245.417 31.833 M258.667 36.750 C 258.896 36.881,259.158 36.988,259.250 36.988 C 259.342 36.988,259.229 36.881,259.000 36.750 C 258.771 36.619,258.508 36.512,258.417 36.512 C 258.325 36.512,258.438 36.619,258.667 36.750 M130.667 37.083 C 130.438 37.214,130.325 37.322,130.417 37.322 C 130.508 37.322,130.771 37.214,131.000 37.083 C 131.229 36.952,131.342 36.845,131.250 36.845 C 131.158 36.845,130.896 36.952,130.667 37.083 M122.125 41.095 C 121.479 41.446,121.552 41.567,122.208 41.233 C 122.837 40.914,122.948 40.831,122.736 40.840 C 122.652 40.844,122.377 40.959,122.125 41.095 M270.000 42.075 C 270.000 42.121,270.225 42.274,270.500 42.417 C 270.775 42.559,271.000 42.638,271.000 42.592 C 271.000 42.546,270.775 42.392,270.500 42.250 C 270.225 42.108,270.000 42.029,270.000 42.075 M112.208 46.686 C 111.640 47.050,111.456 47.294,111.958 47.018 C 112.341 46.808,112.940 46.345,112.833 46.341 C 112.787 46.340,112.506 46.495,112.208 46.686 M283.833 50.394 C 283.833 50.440,284.058 50.638,284.333 50.833 C 284.608 51.029,284.833 51.152,284.833 51.106 C 284.833 51.060,284.608 50.862,284.333 50.667 C 284.058 50.471,283.833 50.348,283.833 50.394 M105.083 51.431 L 104.583 51.861 105.125 51.502 C 105.423 51.305,105.667 51.112,105.667 51.072 C 105.667 50.947,105.596 50.991,105.083 51.431 M291.333 55.883 C 291.333 55.925,291.686 56.249,292.117 56.602 C 292.548 56.955,292.847 57.157,292.782 57.051 C 292.641 56.824,291.333 55.769,291.333 55.883 M92.324 61.625 L 91.750 62.250 92.375 61.676 C 92.957 61.141,93.077 61.000,92.949 61.000 C 92.922 61.000,92.640 61.281,92.324 61.625 M298.417 62.000 C 298.868 62.458,299.275 62.833,299.321 62.833 C 299.367 62.833,299.035 62.458,298.583 62.000 C 298.132 61.542,297.725 61.167,297.679 61.167 C 297.633 61.167,297.965 61.542,298.417 62.000 M89.910 63.875 L 89.083 64.750 89.958 63.923 C 90.771 63.154,90.910 63.000,90.785 63.000 C 90.759 63.000,90.365 63.394,89.910 63.875 M302.750 66.167 C 304.215 67.633,305.450 68.833,305.496 68.833 C 305.542 68.833,304.381 67.633,302.917 66.167 C 301.452 64.700,300.216 63.500,300.171 63.500 C 300.125 63.500,301.285 64.700,302.750 66.167 M87.742 66.042 L 87.083 66.750 87.792 66.091 C 88.450 65.478,88.577 65.333,88.450 65.333 C 88.423 65.333,88.105 65.652,87.742 66.042 M85.495 68.292 L 84.417 69.417 85.542 68.338 C 86.160 67.745,86.667 67.239,86.667 67.213 C 86.667 67.090,86.497 67.247,85.495 68.292 M159.875 68.782 C 160.035 68.823,160.298 68.823,160.458 68.782 C 160.619 68.740,160.487 68.705,160.167 68.705 C 159.846 68.705,159.715 68.740,159.875 68.782 M164.208 68.782 C 164.369 68.823,164.631 68.823,164.792 68.782 C 164.952 68.740,164.821 68.705,164.500 68.705 C 164.179 68.705,164.048 68.740,164.208 68.782 M307.000 70.583 C 307.311 70.904,307.603 71.167,307.649 71.167 C 307.695 71.167,307.478 70.904,307.167 70.583 C 306.856 70.262,306.564 70.000,306.518 70.000 C 306.472 70.000,306.689 70.262,307.000 70.583 M249.324 70.792 L 248.750 71.417 249.375 70.842 C 249.719 70.526,250.000 70.245,250.000 70.217 C 250.000 70.090,249.859 70.210,249.324 70.792 M82.991 70.958 L 82.417 71.583 83.042 71.009 C 83.623 70.474,83.743 70.333,83.616 70.333 C 83.588 70.333,83.307 70.615,82.991 70.958 M124.708 70.624 C 125.602 70.654,127.065 70.654,127.958 70.624 C 128.852 70.594,128.121 70.570,126.333 70.570 C 124.546 70.570,123.815 70.594,124.708 70.624 M307.833 71.552 C 307.833 71.581,308.077 71.825,308.375 72.094 L 308.917 72.583 308.427 72.042 C 307.971 71.537,307.833 71.423,307.833 71.552 M160.875 73.615 C 161.035 73.657,161.298 73.657,161.458 73.615 C 161.619 73.573,161.487 73.539,161.167 73.539 C 160.846 73.539,160.715 73.573,160.875 73.615 M243.914 76.375 L 242.250 78.083 243.958 76.420 C 245.545 74.875,245.742 74.667,245.622 74.667 C 245.597 74.667,244.828 75.435,243.914 76.375 M125.298 75.457 C 125.875 75.490,126.775 75.489,127.298 75.456 C 127.822 75.423,127.350 75.397,126.250 75.397 C 125.150 75.397,124.722 75.424,125.298 75.457 M251.410 76.208 L 250.583 77.083 251.458 76.256 C 251.940 75.801,252.333 75.408,252.333 75.381 C 252.333 75.257,252.179 75.395,251.410 76.208 M149.167 77.583 C 148.762 77.996,148.468 78.333,148.514 78.333 C 148.560 78.333,148.928 77.996,149.333 77.583 C 149.738 77.171,150.032 76.833,149.986 76.833 C 149.940 76.833,149.572 77.171,149.167 77.583 M249.406 78.375 L 248.917 78.917 249.458 78.427 C 249.963 77.971,250.077 77.833,249.948 77.833 C 249.919 77.833,249.675 78.077,249.406 78.375 M76.881 78.375 C 76.159 79.320,75.778 79.883,75.920 79.797 C 76.117 79.678,77.224 78.167,77.114 78.167 C 77.074 78.167,76.969 78.260,76.881 78.375 M247.824 80.125 L 247.250 80.750 247.875 80.176 C 248.219 79.860,248.500 79.578,248.500 79.551 C 248.500 79.423,248.359 79.543,247.824 80.125 M245.667 82.417 C 245.262 82.829,244.968 83.167,245.014 83.167 C 245.060 83.167,245.428 82.829,245.833 82.417 C 246.238 82.004,246.532 81.667,246.486 81.667 C 246.440 81.667,246.072 82.004,245.667 82.417 M160.409 88.833 C 160.409 92.179,160.431 93.548,160.458 91.875 C 160.485 90.202,160.485 87.465,160.458 85.792 C 160.431 84.119,160.409 85.487,160.409 88.833 M111.383 83.833 C 111.383 84.337,111.415 84.544,111.453 84.292 C 111.491 84.040,111.491 83.627,111.453 83.375 C 111.415 83.123,111.383 83.329,111.383 83.833 M234.997 85.458 L 232.917 87.583 235.042 85.503 C 236.210 84.358,237.167 83.402,237.167 83.378 C 237.167 83.258,236.930 83.484,234.997 85.458 M146.221 84.917 C 146.222 85.558,146.252 85.800,146.288 85.455 C 146.324 85.109,146.324 84.584,146.287 84.288 C 146.250 83.992,146.221 84.275,146.221 84.917 M243.577 84.708 L 242.750 85.583 243.625 84.756 C 244.106 84.301,244.500 83.908,244.500 83.881 C 244.500 83.757,244.346 83.895,243.577 84.708 M139.208 84.788 C 139.552 84.824,140.115 84.824,140.458 84.788 C 140.802 84.752,140.521 84.723,139.833 84.723 C 139.146 84.723,138.865 84.752,139.208 84.788 M136.377 84.953 C 136.631 84.991,137.006 84.990,137.211 84.951 C 137.416 84.911,137.208 84.880,136.750 84.881 C 136.292 84.882,136.124 84.915,136.377 84.953 M173.958 85.289 C 174.348 85.324,174.985 85.324,175.375 85.289 C 175.765 85.254,175.446 85.225,174.667 85.225 C 173.887 85.225,173.569 85.254,173.958 85.289 M165.792 85.455 C 166.181 85.490,166.819 85.490,167.208 85.455 C 167.598 85.420,167.279 85.392,166.500 85.392 C 165.721 85.392,165.402 85.420,165.792 85.455 M71.730 85.708 C 71.157 86.682,71.119 86.765,71.411 86.417 C 71.750 86.013,72.042 85.500,71.932 85.500 C 71.889 85.500,71.798 85.594,71.730 85.708 M240.833 87.583 C 240.428 87.996,240.135 88.333,240.181 88.333 C 240.226 88.333,240.595 87.996,241.000 87.583 C 241.405 87.171,241.699 86.833,241.653 86.833 C 241.607 86.833,241.238 87.171,240.833 87.583 M254.196 87.625 C 259.207 87.649,267.457 87.649,272.529 87.625 C 277.600 87.600,273.500 87.580,263.417 87.580 C 253.333 87.580,249.184 87.600,254.196 87.625 M244.416 153.083 C 244.416 188.833,244.435 203.483,244.458 185.639 C 244.482 167.794,244.482 138.544,244.458 120.639 C 244.435 102.733,244.416 117.333,244.416 153.083 M282.416 153.000 C 282.416 188.521,282.435 203.052,282.458 185.292 C 282.482 167.531,282.482 138.469,282.458 120.708 C 282.435 102.948,282.416 117.479,282.416 153.000 M167.542 88.791 C 169.535 88.818,172.798 88.818,174.792 88.791 C 176.785 88.765,175.154 88.743,171.167 88.743 C 167.179 88.743,165.548 88.765,167.542 88.791 M239.075 89.542 L 238.417 90.250 239.125 89.591 C 239.784 88.978,239.910 88.833,239.784 88.833 C 239.757 88.833,239.438 89.152,239.075 89.542 M179.398 91.417 C 179.398 92.608,179.425 93.074,179.457 92.451 C 179.489 91.829,179.489 90.854,179.457 90.285 C 179.424 89.716,179.398 90.225,179.398 91.417 M108.406 90.708 L 107.917 91.250 108.458 90.760 C 108.756 90.491,109.000 90.248,109.000 90.219 C 109.000 90.090,108.862 90.203,108.406 90.708 M183.721 91.417 C 183.722 92.058,183.752 92.300,183.788 91.955 C 183.824 91.609,183.824 91.084,183.787 90.788 C 183.750 90.492,183.721 90.775,183.721 91.417 M237.333 91.417 C 236.928 91.829,236.635 92.167,236.681 92.167 C 236.726 92.167,237.095 91.829,237.500 91.417 C 237.905 91.004,238.199 90.667,238.153 90.667 C 238.107 90.667,237.738 91.004,237.333 91.417 M146.221 92.083 C 146.222 92.725,146.252 92.967,146.288 92.621 C 146.324 92.275,146.324 91.750,146.287 91.455 C 146.250 91.159,146.221 91.442,146.221 92.083 M226.414 94.208 L 224.583 96.083 226.458 94.253 C 227.490 93.246,228.333 92.402,228.333 92.378 C 228.333 92.258,228.114 92.467,226.414 94.208 M66.833 94.167 C 66.556 94.717,66.366 95.167,66.412 95.167 C 66.458 95.167,66.722 94.717,67.000 94.167 C 67.278 93.617,67.467 93.167,67.421 93.167 C 67.376 93.167,67.111 93.617,66.833 94.167 M235.075 93.875 L 234.417 94.583 235.125 93.925 C 235.784 93.312,235.910 93.167,235.784 93.167 C 235.757 93.167,235.438 93.485,235.075 93.875 M119.792 94.287 C 120.090 94.324,120.577 94.324,120.875 94.287 C 121.173 94.250,120.929 94.220,120.333 94.220 C 119.737 94.220,119.494 94.250,119.792 94.287 M114.792 94.454 C 115.090 94.491,115.577 94.491,115.875 94.454 C 116.173 94.417,115.929 94.387,115.333 94.387 C 114.737 94.387,114.494 94.417,114.792 94.454 M110.872 95.500 C 110.872 95.821,110.906 95.952,110.948 95.792 C 110.990 95.631,110.990 95.369,110.948 95.208 C 110.906 95.048,110.872 95.179,110.872 95.500 M324.283 95.748 C 324.435 96.068,324.589 96.300,324.625 96.263 C 324.702 96.187,324.196 95.167,324.082 95.167 C 324.040 95.167,324.130 95.428,324.283 95.748 M106.705 96.167 C 106.705 96.487,106.740 96.619,106.782 96.458 C 106.823 96.298,106.823 96.035,106.782 95.875 C 106.740 95.715,106.705 95.846,106.705 96.167 M232.333 96.750 C 231.928 97.162,231.635 97.500,231.681 97.500 C 231.726 97.500,232.095 97.162,232.500 96.750 C 232.905 96.337,233.199 96.000,233.153 96.000 C 233.107 96.000,232.738 96.337,232.333 96.750 M221.333 99.417 C 220.650 100.104,220.129 100.667,220.175 100.667 C 220.221 100.667,220.817 100.104,221.500 99.417 C 222.183 98.729,222.704 98.167,222.658 98.167 C 222.612 98.167,222.016 98.729,221.333 99.417 M229.824 99.458 L 229.250 100.083 229.875 99.509 C 230.457 98.974,230.577 98.833,230.449 98.833 C 230.422 98.833,230.140 99.115,229.824 99.458 M113.333 101.417 C 113.644 101.737,113.936 102.000,113.982 102.000 C 114.028 102.000,113.811 101.737,113.500 101.417 C 113.189 101.096,112.897 100.833,112.851 100.833 C 112.805 100.833,113.022 101.096,113.333 101.417 M145.333 102.250 C 145.644 102.571,145.936 102.833,145.982 102.833 C 146.028 102.833,145.811 102.571,145.500 102.250 C 145.189 101.929,144.897 101.667,144.851 101.667 C 144.805 101.667,145.022 101.929,145.333 102.250 M209.381 101.790 C 209.912 101.823,210.737 101.823,211.214 101.789 C 211.692 101.756,211.258 101.729,210.250 101.729 C 209.242 101.729,208.851 101.757,209.381 101.790 M177.744 103.375 L 176.917 104.250 177.792 103.423 C 178.273 102.968,178.667 102.574,178.667 102.548 C 178.667 102.424,178.512 102.562,177.744 103.375 M161.458 103.787 C 161.756 103.824,162.244 103.824,162.542 103.787 C 162.840 103.750,162.596 103.720,162.000 103.720 C 161.404 103.720,161.160 103.750,161.458 103.787 M196.958 104.429 C 196.312 104.779,196.385 104.900,197.042 104.566 C 197.670 104.247,197.781 104.164,197.569 104.173 C 197.485 104.177,197.210 104.292,196.958 104.429 M123.542 105.448 C 123.702 105.490,123.965 105.490,124.125 105.448 C 124.285 105.406,124.154 105.372,123.833 105.372 C 123.513 105.372,123.381 105.406,123.542 105.448 M328.762 106.000 C 328.824 106.229,328.943 106.529,329.028 106.667 C 329.135 106.840,329.149 106.790,329.071 106.500 C 329.010 106.271,328.890 105.971,328.805 105.833 C 328.698 105.660,328.685 105.710,328.762 106.000 M211.292 108.451 C 211.498 108.491,211.835 108.491,212.042 108.451 C 212.248 108.411,212.079 108.379,211.667 108.379 C 211.254 108.379,211.085 108.411,211.292 108.451 M164.627 108.618 C 164.834 108.658,165.134 108.656,165.294 108.615 C 165.453 108.573,165.283 108.540,164.917 108.542 C 164.550 108.544,164.420 108.578,164.627 108.618 M122.127 110.285 C 122.334 110.324,122.634 110.323,122.794 110.281 C 122.953 110.239,122.783 110.207,122.417 110.209 C 122.050 110.211,121.920 110.245,122.127 110.285 M125.383 110.458 C 126.190 110.488,127.465 110.488,128.217 110.457 C 128.968 110.426,128.308 110.401,126.750 110.402 C 125.192 110.402,124.577 110.427,125.383 110.458 M164.466 122.457 C 165.227 122.488,166.427 122.488,167.133 122.457 C 167.839 122.426,167.217 122.401,165.750 122.401 C 164.283 122.401,163.706 122.427,164.466 122.457 M160.377 122.620 C 160.631 122.658,161.006 122.657,161.211 122.617 C 161.416 122.578,161.208 122.546,160.750 122.548 C 160.292 122.549,160.124 122.581,160.377 122.620 M153.633 122.791 C 154.394 122.822,155.594 122.822,156.300 122.790 C 157.006 122.759,156.383 122.734,154.917 122.734 C 153.450 122.734,152.872 122.760,153.633 122.791 M147.129 122.956 C 147.521 122.991,148.121 122.990,148.463 122.954 C 148.804 122.919,148.483 122.890,147.750 122.890 C 147.017 122.891,146.737 122.920,147.129 122.956 M139.200 123.124 C 139.997 123.154,141.347 123.155,142.200 123.124 C 143.052 123.094,142.400 123.069,140.750 123.069 C 139.100 123.069,138.402 123.093,139.200 123.124 M206.208 125.292 C 211.227 125.316,219.440 125.316,224.458 125.292 C 229.477 125.267,225.371 125.247,215.333 125.247 C 205.296 125.247,201.190 125.267,206.208 125.292 M233.958 125.517 C 234.123 125.728,234.175 135.354,234.208 171.933 L 234.251 218.083 234.292 171.895 C 234.331 128.077,234.318 125.696,234.042 125.479 C 233.783 125.276,233.774 125.280,233.958 125.517 M196.249 171.917 C 196.249 197.125,196.268 207.413,196.292 194.778 C 196.315 182.144,196.315 161.519,196.292 148.945 C 196.268 136.371,196.249 146.708,196.249 171.917 M162.708 127.955 C 163.052 127.991,163.615 127.991,163.958 127.955 C 164.302 127.919,164.021 127.889,163.333 127.889 C 162.646 127.889,162.365 127.919,162.708 127.955 M156.208 128.124 C 156.827 128.156,157.840 128.156,158.458 128.124 C 159.077 128.092,158.571 128.065,157.333 128.065 C 156.096 128.065,155.590 128.092,156.208 128.124 M148.214 128.290 C 148.745 128.323,149.570 128.323,150.048 128.289 C 150.526 128.256,150.092 128.229,149.083 128.229 C 148.075 128.229,147.684 128.257,148.214 128.290 M142.375 128.453 C 142.627 128.491,143.040 128.491,143.292 128.453 C 143.544 128.415,143.337 128.383,142.833 128.383 C 142.329 128.383,142.123 128.415,142.375 128.453 M136.824 130.125 L 136.250 130.750 136.875 130.176 C 137.457 129.641,137.577 129.500,137.449 129.500 C 137.422 129.500,137.140 129.781,136.824 130.125 M55.872 130.333 C 55.872 130.654,55.906 130.785,55.948 130.625 C 55.990 130.465,55.990 130.202,55.948 130.042 C 55.906 129.881,55.872 130.012,55.872 130.333 M55.705 132.167 C 55.705 132.487,55.740 132.619,55.782 132.458 C 55.823 132.298,55.823 132.035,55.782 131.875 C 55.740 131.715,55.705 131.846,55.705 132.167 M334.705 132.333 C 334.705 132.654,334.740 132.785,334.782 132.625 C 334.823 132.465,334.823 132.202,334.782 132.042 C 334.740 131.881,334.705 132.012,334.705 132.333 M55.542 134.250 C 55.544 134.617,55.578 134.747,55.618 134.540 C 55.658 134.332,55.656 134.032,55.615 133.873 C 55.573 133.714,55.540 133.883,55.542 134.250 M132.073 134.375 L 131.583 134.917 132.125 134.427 C 132.630 133.971,132.743 133.833,132.615 133.833 C 132.586 133.833,132.342 134.077,132.073 134.375 M157.888 134.125 C 162.914 134.149,171.089 134.149,176.054 134.125 C 181.020 134.100,176.908 134.080,166.917 134.080 C 156.925 134.080,152.862 134.100,157.888 134.125 M334.872 134.500 C 334.872 134.821,334.906 134.952,334.948 134.792 C 334.990 134.631,334.990 134.369,334.948 134.208 C 334.906 134.048,334.872 134.179,334.872 134.500 M185.915 176.333 C 185.915 199.296,185.935 208.690,185.958 197.208 C 185.982 185.727,185.982 166.940,185.958 155.458 C 185.935 143.977,185.915 153.371,185.915 176.333 M130.573 135.708 L 130.083 136.250 130.625 135.760 C 130.923 135.491,131.167 135.248,131.167 135.219 C 131.167 135.090,131.029 135.203,130.573 135.708 M55.389 137.667 C 55.389 138.354,55.419 138.635,55.455 138.292 C 55.491 137.948,55.491 137.385,55.455 137.042 C 55.419 136.698,55.389 136.979,55.389 137.667 M335.056 137.833 C 335.056 138.521,335.085 138.802,335.121 138.458 C 335.157 138.115,335.157 137.552,335.121 137.208 C 335.085 136.865,335.056 137.146,335.056 137.833 M335.056 143.500 C 335.056 144.188,335.085 144.469,335.121 144.125 C 335.157 143.781,335.157 143.219,335.121 142.875 C 335.085 142.531,335.056 142.813,335.056 143.500 M55.387 144.000 C 55.387 144.596,55.417 144.840,55.454 144.542 C 55.491 144.244,55.491 143.756,55.454 143.458 C 55.417 143.160,55.387 143.404,55.387 144.000 M121.573 143.708 L 121.083 144.250 121.625 143.760 C 121.923 143.491,122.167 143.248,122.167 143.219 C 122.167 143.090,122.029 143.203,121.573 143.708 M334.875 146.750 C 334.877 147.117,334.911 147.247,334.951 147.040 C 334.991 146.832,334.990 146.532,334.948 146.373 C 334.906 146.214,334.874 146.383,334.875 146.750 M55.542 147.083 C 55.544 147.450,55.578 147.580,55.618 147.373 C 55.658 147.166,55.656 146.866,55.615 146.706 C 55.573 146.547,55.540 146.717,55.542 147.083 M334.705 149.000 C 334.705 149.321,334.740 149.452,334.782 149.292 C 334.823 149.131,334.823 148.869,334.782 148.708 C 334.740 148.548,334.705 148.679,334.705 149.000 M115.406 149.208 L 114.917 149.750 115.458 149.260 C 115.756 148.991,116.000 148.748,116.000 148.719 C 116.000 148.590,115.862 148.703,115.406 149.208 M55.875 150.917 C 55.877 151.283,55.911 151.414,55.951 151.206 C 55.991 150.999,55.990 150.699,55.948 150.540 C 55.906 150.380,55.874 150.550,55.875 150.917 M334.205 153.667 C 334.205 153.987,334.240 154.119,334.282 153.958 C 334.323 153.798,334.323 153.535,334.282 153.375 C 334.240 153.215,334.205 153.346,334.205 153.667 M56.205 153.833 C 56.205 154.154,56.240 154.285,56.282 154.125 C 56.323 153.965,56.323 153.702,56.282 153.542 C 56.240 153.381,56.205 153.512,56.205 153.833 M108.875 162.458 C 113.985 162.483,122.348 162.483,127.458 162.458 C 132.569 162.434,128.387 162.414,118.167 162.414 C 107.946 162.414,103.765 162.434,108.875 162.458 M66.000 185.394 C 66.000 185.575,66.995 187.500,67.088 187.500 C 67.134 187.500,66.936 187.031,66.649 186.458 C 66.105 185.372,66.000 185.200,66.000 185.394 M322.750 188.500 C 322.608 188.775,322.529 189.000,322.575 189.000 C 322.621 189.000,322.774 188.775,322.917 188.500 C 323.059 188.225,323.138 188.000,323.092 188.000 C 323.046 188.000,322.892 188.225,322.750 188.500 M319.230 194.542 C 318.657 195.515,318.619 195.598,318.911 195.250 C 319.250 194.847,319.542 194.333,319.432 194.333 C 319.389 194.333,319.298 194.427,319.230 194.542 M313.810 202.458 C 313.331 203.037,313.127 203.333,313.210 203.333 C 313.256 203.333,313.494 203.071,313.739 202.750 C 314.193 202.155,314.248 201.930,313.810 202.458 M309.240 208.208 L 308.750 208.750 309.292 208.260 C 309.797 207.804,309.910 207.667,309.781 207.667 C 309.752 207.667,309.509 207.910,309.240 208.208 M308.240 209.375 L 307.750 209.917 308.292 209.427 C 308.797 208.971,308.910 208.833,308.781 208.833 C 308.752 208.833,308.509 209.077,308.240 209.375 M306.909 210.875 L 306.250 211.583 306.958 210.925 C 307.617 210.312,307.743 210.167,307.617 210.167 C 307.590 210.167,307.271 210.485,306.909 210.875 M83.667 211.083 C 83.978 211.404,84.270 211.667,84.315 211.667 C 84.361 211.667,84.144 211.404,83.833 211.083 C 83.522 210.762,83.230 210.500,83.185 210.500 C 83.139 210.500,83.356 210.762,83.667 211.083 M87.917 215.500 C 89.657 217.242,91.118 218.667,91.163 218.667 C 91.209 218.667,89.823 217.242,88.083 215.500 C 86.343 213.758,84.882 212.333,84.837 212.333 C 84.791 212.333,86.177 213.758,87.917 215.500 M302.831 215.125 L 300.083 217.917 302.875 215.169 C 304.410 213.657,305.667 212.401,305.667 212.377 C 305.667 212.258,305.385 212.531,302.831 215.125 M298.667 219.083 C 298.262 219.496,297.968 219.833,298.014 219.833 C 298.060 219.833,298.428 219.496,298.833 219.083 C 299.238 218.671,299.532 218.333,299.486 218.333 C 299.440 218.333,299.072 218.671,298.667 219.083 M92.333 219.750 C 92.644 220.071,92.936 220.333,92.982 220.333 C 93.028 220.333,92.811 220.071,92.500 219.750 C 92.189 219.429,91.897 219.167,91.851 219.167 C 91.805 219.167,92.022 219.429,92.333 219.750 M296.906 220.708 L 296.417 221.250 296.958 220.760 C 297.463 220.304,297.577 220.167,297.448 220.167 C 297.419 220.167,297.175 220.410,296.906 220.708 M282.542 231.686 C 281.974 232.050,281.790 232.294,282.292 232.018 C 282.674 231.808,283.273 231.345,283.167 231.341 C 283.121 231.340,282.840 231.495,282.542 231.686 M115.000 236.241 C 115.000 236.287,115.225 236.441,115.500 236.583 C 115.775 236.726,116.000 236.804,116.000 236.759 C 116.000 236.713,115.775 236.559,115.500 236.417 C 115.225 236.274,115.000 236.196,115.000 236.241 M116.167 236.908 C 116.167 236.954,116.392 237.108,116.667 237.250 C 116.942 237.392,117.167 237.471,117.167 237.425 C 117.167 237.379,116.942 237.226,116.667 237.083 C 116.392 236.941,116.167 236.862,116.167 236.908 M126.000 242.083 C 126.412 242.304,126.825 242.485,126.917 242.485 C 127.008 242.485,126.746 242.304,126.333 242.083 C 125.921 241.862,125.508 241.682,125.417 241.682 C 125.325 241.682,125.587 241.862,126.000 242.083 M264.167 242.083 C 263.754 242.304,263.492 242.485,263.583 242.485 C 263.675 242.485,264.087 242.304,264.500 242.083 C 264.912 241.862,265.175 241.682,265.083 241.682 C 264.992 241.682,264.579 241.862,264.167 242.083 M149.583 251.000 C 149.767 251.079,150.029 251.143,150.167 251.143 C 150.324 251.143,150.293 251.090,150.083 251.000 C 149.900 250.921,149.637 250.857,149.500 250.857 C 149.342 250.857,149.373 250.910,149.583 251.000 M150.750 251.333 C 150.933 251.412,151.196 251.477,151.333 251.477 C 151.491 251.477,151.460 251.424,151.250 251.333 C 151.067 251.255,150.804 251.190,150.667 251.190 C 150.509 251.190,150.540 251.243,150.750 251.333 M239.250 251.333 C 239.040 251.424,239.009 251.477,239.167 251.477 C 239.304 251.477,239.567 251.412,239.750 251.333 C 239.960 251.243,239.991 251.190,239.833 251.190 C 239.696 251.190,239.433 251.255,239.250 251.333 M171.042 255.615 C 171.202 255.657,171.465 255.657,171.625 255.615 C 171.785 255.573,171.654 255.539,171.333 255.539 C 171.012 255.539,170.881 255.573,171.042 255.615 M217.542 255.782 C 217.702 255.823,217.965 255.823,218.125 255.782 C 218.285 255.740,218.154 255.705,217.833 255.705 C 217.512 255.705,217.381 255.740,217.542 255.782 M173.542 255.948 C 173.702 255.990,173.965 255.990,174.125 255.948 C 174.285 255.906,174.154 255.872,173.833 255.872 C 173.512 255.872,173.381 255.906,173.542 255.948 M216.294 255.951 C 216.501 255.991,216.801 255.990,216.960 255.948 C 217.120 255.906,216.950 255.874,216.583 255.875 C 216.217 255.877,216.086 255.911,216.294 255.951 M174.875 256.115 C 175.035 256.157,175.298 256.157,175.458 256.115 C 175.619 256.073,175.487 256.039,175.167 256.039 C 174.846 256.039,174.715 256.073,174.875 256.115 M214.875 256.115 C 215.035 256.157,215.298 256.157,215.458 256.115 C 215.619 256.073,215.487 256.039,215.167 256.039 C 214.846 256.039,214.715 256.073,214.875 256.115 M176.294 256.285 C 176.501 256.324,176.801 256.323,176.960 256.281 C 177.120 256.239,176.950 256.207,176.583 256.209 C 176.217 256.211,176.086 256.245,176.294 256.285 M213.460 256.285 C 213.668 256.324,213.968 256.323,214.127 256.281 C 214.286 256.239,214.117 256.207,213.750 256.209 C 213.383 256.211,213.253 256.245,213.460 256.285 M177.792 256.451 C 177.998 256.491,178.335 256.491,178.542 256.451 C 178.748 256.411,178.579 256.379,178.167 256.379 C 177.754 256.379,177.585 256.411,177.792 256.451 M211.625 256.451 C 211.831 256.491,212.169 256.491,212.375 256.451 C 212.581 256.411,212.412 256.379,212.000 256.379 C 211.588 256.379,211.419 256.411,211.625 256.451 M179.542 256.619 C 179.794 256.658,180.206 256.658,180.458 256.619 C 180.710 256.581,180.504 256.550,180.000 256.550 C 179.496 256.550,179.290 256.581,179.542 256.619 M209.877 256.620 C 210.131 256.658,210.506 256.657,210.711 256.617 C 210.916 256.578,210.708 256.546,210.250 256.548 C 209.792 256.549,209.624 256.581,209.877 256.620 M181.708 256.786 C 181.960 256.824,182.373 256.824,182.625 256.786 C 182.877 256.748,182.671 256.717,182.167 256.717 C 181.662 256.717,181.456 256.748,181.708 256.786 M207.711 256.786 C 207.964 256.825,208.339 256.824,208.544 256.784 C 208.749 256.744,208.542 256.713,208.083 256.714 C 207.625 256.716,207.457 256.748,207.711 256.786 M184.044 256.953 C 184.297 256.991,184.672 256.990,184.877 256.951 C 185.082 256.911,184.875 256.880,184.417 256.881 C 183.958 256.882,183.791 256.915,184.044 256.953 M205.544 256.953 C 205.797 256.991,206.172 256.990,206.377 256.951 C 206.582 256.911,206.375 256.880,205.917 256.881 C 205.458 256.882,205.291 256.915,205.544 256.953 M186.455 257.120 C 186.750 257.157,187.275 257.158,187.621 257.122 C 187.967 257.086,187.725 257.055,187.083 257.055 C 186.442 257.054,186.159 257.083,186.455 257.120 M202.455 257.120 C 202.750 257.157,203.275 257.158,203.621 257.122 C 203.967 257.086,203.725 257.055,203.083 257.055 C 202.442 257.054,202.159 257.083,202.455 257.120 M192.792 257.291 C 194.098 257.319,196.235 257.319,197.542 257.291 C 198.848 257.263,197.779 257.240,195.167 257.240 C 192.554 257.240,191.485 257.263,192.792 257.291 " stroke="none" fill="#9ec1c5" fill-rule="evenodd"></path></g></svg>